<svg width="20" height="16" fill="none" xmlns="http://www.w3.org/2000/svg"><path d="M20 1.895a8.236 8.236 0 01-2.05 2.087 11.403 11.403 0 01-.468 3.768 11.488 11.488 0 01-1.465 3.109c-.658.99-1.44 1.867-2.35 2.631-.908.764-2 1.374-3.276 1.828C9.116 15.773 7.75 16 6.29 16c-2.277 0-4.373-.605-6.29-1.816.34.037.667.056.98.056 1.901 0 3.6-.577 5.095-1.73a4.018 4.018 0 01-2.382-.807 3.974 3.974 0 01-1.449-2 4.184 4.184 0 001.853-.068 4.008 4.008 0 01-2.355-1.392 3.873 3.873 0 01-.936-2.569v-.05c.581.317 1.2.486 1.859.506a4.042 4.042 0 01-1.333-1.44 3.897 3.897 0 01-.493-1.922c0-.727.185-1.404.555-2.03a11.646 11.646 0 003.74 2.982A11.538 11.538 0 009.85 4.96a3.88 3.88 0 01-.107-.92c0-1.115.4-2.067 1.202-2.856C11.745.394 12.712 0 13.844 0c1.186 0 2.184.425 2.996 1.275a8.247 8.247 0 002.605-.981c-.312.966-.913 1.712-1.803 2.236A8.303 8.303 0 0020 1.895z" fill="#fff"/></svg>