<svg width="41" height="42" fill="none" xmlns="http://www.w3.org/2000/svg"><g clip-path="url(#clip0_430_95)"><path d="M34.51 14.527a13.92 13.92 0 10-27.842 0 .643.643 0 00.3.538l11.709 7.249a9.492 9.492 0 103.824 0l11.71-7.249a.645.645 0 00.299-.538zm-5.727 16.452h-1.266a6.926 6.926 0 00-1.582-3.818l.894-.894a8.182 8.182 0 011.954 4.712zm-1.954 5.978l-.895-.894a6.926 6.926 0 001.583-3.818h1.266a8.182 8.182 0 01-1.954 4.712zm-14.434-4.712h1.265a6.926 6.926 0 001.583 3.818l-.894.894a8.182 8.182 0 01-1.954-4.712zm1.954-5.978l.894.894a6.926 6.926 0 00-1.583 3.818h-1.265a8.181 8.181 0 011.954-4.712zm11.935 5.345a5.695 5.695 0 11-5.695-5.695 5.702 5.702 0 015.695 5.695zm-6.328-6.928a6.926 6.926 0 00-3.818 1.582l-.895-.894a8.182 8.182 0 014.713-1.954v1.265zm-3.818 12.274a6.926 6.926 0 003.818 1.582v1.266a8.183 8.183 0 01-4.713-1.954l.895-.894zm5.084 1.582a6.926 6.926 0 003.818-1.582l.894.894a8.182 8.182 0 01-4.712 1.954V38.54zm3.818-12.274a6.926 6.926 0 00-3.818-1.582v-1.266a8.182 8.182 0 014.712 1.954l-.894.894zm-9.397-11.364l3.267 6.068-10.59-6.555a5.236 5.236 0 017.322.487zm1.293-.267a5.233 5.233 0 017.305 0l-3.652 6.784-3.653-6.784zm8.6.267a5.235 5.235 0 017.32-.487L22.268 20.97l3.267-6.068zm7.622-1.859a6.496 6.496 0 00-6.994-.264c.79-3.525.173-7.22-1.722-10.296a12.68 12.68 0 018.716 10.56zM22.552 2.036c3.493 4.26 2.698 9.29 2.164 11.33a6.489 6.489 0 00-8.254 0c-.534-2.04-1.33-7.07 2.164-11.33 1.3-.22 2.627-.22 3.926 0zm-5.815.446a13.849 13.849 0 00-1.723 10.297 6.495 6.495 0 00-6.994.264 12.681 12.681 0 018.717-10.56z" fill="#2E2E2E"/><path d="M23.964 29.854l-4.134 4.417-1.66-3.022" stroke="#2E2E2E" stroke-width="1.125" stroke-linecap="round"/></g><defs><clipPath id="clip0_430_95"><path fill="#fff" transform="translate(.34 .606)" d="M0 0h40.498v40.498H0z"/></clipPath></defs></svg>