<svg width="1788" height="327" fill="none" xmlns="http://www.w3.org/2000/svg"><g opacity=".31" stroke="#000" stroke-opacity=".46" stroke-miterlimit="10"><path d="M225.628 29.312L-2426.52 351M285.656 29.312L-2113.91 351M345.685 29.312L-1801.29 351M405.713 29.312L-1488.67 351M465.759 29.312L-1176.05 351M525.788 29.312L-863.432 351M585.816 29.312L-550.812 351M645.845 29.312L-238.208 351M705.873 29.312L74.411 351M765.919 29.312L387.031 351M946.004 29.312L1324.89 351M1066.08 29.312L1950.13 351M1186.14 29.312L2575.35 351M1126.11 29.312L2262.73 351M1006.05 29.312L1637.51 351M885.976 29.312L1012.27 351M825.947 29.312L699.651 351M1246.16 29.312L2887.97 351M1306.21 29.312L3200.59 351M1366.24 29.312L3513.22 351M1426.27 29.312L3825.84 351M1486.3 29.312L4138.44 351M1486.29 29.312H225.627m1295.963 4.29H190.332m1370.728 4.784H150.866m1454.644 5.391H106.408m1549.542 6.109H55.968m1657.712 7.008H-1.752M1780.35 64.98H-68.43m1926.72 9.456H-146.371M1950.58 85.622H-238.653M2061.57 99.098H-349.651m2547.261 16.487H-485.689m2853.969 20.709H-656.357m3245.047 26.729H-876.764M2884.3 198.871h-4056.68m4473.91 50.605H-1589.6" stroke-width="2"/><path d="M225.628 29.312L-2426.52 351M285.656 29.312L-2113.91 351M345.685 29.312L-1801.29 351M405.713 29.312L-1488.67 351M465.759 29.312L-1176.05 351M525.788 29.312L-863.432 351M585.816 29.312L-550.812 351M645.845 29.312L-238.208 351M705.873 29.312L74.411 351M765.919 29.312L387.031 351M946.004 29.312L1324.89 351M1066.08 29.312L1950.13 351M1186.14 29.312L2575.35 351M1126.11 29.312L2262.73 351M1006.05 29.312L1637.51 351M885.976 29.312L1012.27 351M825.947 29.312L699.651 351M1246.16 29.312L2887.97 351M1306.21 29.312L3200.59 351M1366.24 29.312L3513.22 351M1426.27 29.312L3825.84 351M1486.3 29.312L4138.44 351M1486.29 29.312H225.627m1295.963 4.29H190.332m1370.728 4.784H150.866m1454.644 5.391H106.408m1549.542 6.109H55.968m1657.712 7.008H-1.752M1780.35 64.98H-68.43m1926.72 9.456H-146.371M1950.58 85.622H-238.653M2061.57 99.098H-349.651m2547.261 16.487H-485.689m2853.969 20.709H-656.357m3245.047 26.729H-876.764M2884.3 198.871h-4056.68m4473.91 50.605H-1589.6" stroke-width="2" opacity=".3"/><path d="M225.628 29.312L-2426.52 351M285.656 29.312L-2113.91 351M345.685 29.312L-1801.29 351M405.713 29.312L-1488.67 351M465.759 29.312L-1176.05 351M525.788 29.312L-863.432 351M585.816 29.312L-550.812 351M645.844 29.312L-238.209 351M705.873 29.312L74.411 351M765.919 29.312L387.031 351M946.004 29.312L1324.89 351M1066.08 29.312L1950.13 351M1186.14 29.312L2575.35 351M1126.11 29.312L2262.73 351M1006.05 29.312L1637.51 351M885.975 29.312L1012.27 351M825.947 29.312L699.651 351M1246.16 29.312L2887.97 351M1306.21 29.312L3200.59 351M1366.24 29.312L3513.22 351M1426.27 29.312L3825.84 351M1486.29 29.312L4138.44 351M1486.29 29.312H225.627m1295.963 4.29H190.332m1370.728 4.784H150.866m1454.644 5.39H106.408m1549.542 6.11H55.968m1657.712 7.008H-1.752M1780.35 64.98H-68.43m1926.72 9.456H-146.371M1950.58 85.622H-238.653M2061.57 99.098H-349.651m2547.261 16.487h-2683.3m2853.97 20.709H-656.357m3245.047 26.729H-876.764M2884.3 198.871h-4056.68m4473.91 50.604H-1589.6" stroke-width=".75"/></g></svg>