<svg width="49" height="40" fill="none" xmlns="http://www.w3.org/2000/svg"><g clip-path="url(#clip0_435_44)"><path d="M48.852 5.551a19.89 19.89 0 01-4.95 5.038c.02.373.03.794.03 1.263 0 2.609-.386 5.22-1.159 7.835-.772 2.614-1.951 5.117-3.538 7.508a29.786 29.786 0 01-5.672 6.354c-2.193 1.845-4.83 3.317-7.91 4.414-3.08 1.097-6.382 1.646-9.904 1.646-5.497 0-10.56-1.462-15.187-4.385.822.09 1.61.135 2.363.135 4.593 0 8.694-1.393 12.305-4.179-2.14-.039-4.059-.688-5.753-1.947-1.694-1.26-2.86-2.87-3.497-4.83a10.036 10.036 0 004.474-.162c-2.285-.451-4.18-1.572-5.687-3.363-1.506-1.791-2.26-3.858-2.26-6.202v-.12a9.884 9.884 0 004.489 1.22 9.76 9.76 0 01-3.22-3.477 9.41 9.41 0 01-1.19-4.64c0-1.755.447-3.39 1.34-4.903C6.413 5.76 9.424 8.16 12.96 9.957c3.537 1.798 7.331 2.796 11.384 2.995a9.368 9.368 0 01-.26-2.221c0-2.693.967-4.992 2.902-6.897C28.922 1.928 31.256.975 33.99.975c2.862 0 5.273 1.027 7.233 3.08a19.912 19.912 0 006.29-2.37c-.753 2.333-2.204 4.133-4.352 5.4a20.049 20.049 0 005.691-1.534z" fill="#fff"/></g><defs><clipPath id="clip0_435_44"><path fill="#fff" transform="translate(.56 .975)" d="M0 0h48.292v38.634H0z"/></clipPath></defs></svg>