<svg width="55" height="48" fill="none" xmlns="http://www.w3.org/2000/svg"><path d="M55 24.338c0-3.38-2.746-6.085-6.178-5.747-1.373 0-3.089.677-4.118 1.69-4.805-3.042-10.297-5.07-16.131-5.07l2.745-12.845 8.924 2.028c0 2.367 2.06 4.057 4.462 4.057 2.402 0 4.118-2.028 4.118-4.395C48.822 1.69 46.762 0 44.36 0c-1.716 0-3.088 1.014-3.775 2.366L30.975 0h-.686c-.344 0-.344.338-.344.676l-3.432 14.535c-5.834 0-11.326 1.69-16.13 5.07a6.073 6.073 0 00-8.581 0c-2.403 2.367-2.403 6.085 0 8.451.343.338 1.03 1.015 1.716 1.015v1.69C3.518 40.563 14.158 48 27.543 48c13.385 0 24.025-7.437 24.025-16.563v-1.69C53.628 28.732 55 26.704 55 24.338zm-41.186 4.394c0-2.366 2.06-4.056 4.119-4.056 2.402 0 4.119 2.028 4.119 4.056 0 2.029-2.06 4.057-4.12 4.057-2.402 0-4.118-1.69-4.118-4.057zM37.84 39.887c-3.089 2.029-6.52 3.38-10.296 3.043-3.776 0-7.208-1.014-10.296-3.043-.344-.338-.344-1.014 0-1.69.343-.338 1.03-.338 1.372 0 2.403 1.69 5.492 2.704 8.58 2.366 3.09.338 6.178-.676 8.581-2.366.343-.338 1.03-.338 1.716 0 .686.338.686 1.014.343 1.69zm-1.03-7.098c-2.402 0-4.118-2.028-4.118-4.057 0-2.028 2.06-4.056 4.119-4.056 2.402 0 4.118 2.028 4.118 4.056.343 2.367-1.716 4.057-4.118 4.057z" fill="#fff"/></svg>