<svg width="1788" height="790" fill="none" xmlns="http://www.w3.org/2000/svg"><path d="M1791.5 11L-3 .5v789h821.938c18.83 0 34.727-13.993 37.117-32.671 5.561-43.459 68.487-43.327 74.249.106 2.471 18.621 18.355 32.565 37.14 32.565H1791.5V11z" fill="url(#paint0_linear_430_317)"/><path d="M1791.5 11L-3 .5v789h821.938c18.83 0 34.727-13.993 37.117-32.671 5.561-43.459 68.487-43.327 74.249.106 2.471 18.621 18.355 32.565 37.14 32.565H1791.5V11z" fill="url(#paint1_linear_430_317)"/><defs><linearGradient id="paint0_linear_430_317" x1="1655.8" y1="56.707" x2="-661.455" y2="458.423" gradientUnits="userSpaceOnUse"><stop stop-color="#393939"/><stop offset=".802" stop-color="#1D1C1C"/></linearGradient><linearGradient id="paint1_linear_430_317" x1="-3" y1="516" x2="1915.52" y2="522.559" gradientUnits="userSpaceOnUse"><stop stop-color="#2B85D8"/><stop offset=".495" stop-color="#EDB3D7"/><stop offset="1" stop-color="#EDD0AB"/></linearGradient></defs></svg>