<svg width="1788" height="887" fill="none" xmlns="http://www.w3.org/2000/svg"><mask id="a" style="mask-type:alpha" maskUnits="userSpaceOnUse" x="-186" y="0" width="2386" height="884"><path d="M-186 0h2386v562c0 177.836-144.16 322-322 322H967.562c-18.83 0-34.727-13.993-37.117-32.671-5.561-43.459-68.487-43.327-74.249.106-2.471 18.621-18.355 32.565-37.14 32.565H-186V0z" fill="url(#paint0_linear_609_4)"/></mask><g mask="url(#a)"><path d="M1788 892.28H0V-113.47h1788V892.28z" fill="url(#paint1_linear_609_4)"/></g><path transform="matrix(-1 0 0 1 1713.2 163.72)" fill="url(#paint2_radial_609_4)" fill-opacity=".64" d="M0 0h2284.2v722.52H0z"/><g opacity=".49"><g opacity=".31"><mask id="b" style="mask-type:alpha" maskUnits="userSpaceOnUse" x="-186" y="0" width="2386" height="884"><path d="M-186 0h2386v562c0 177.836-144.16 322-322 322H967.562c-18.83 0-34.727-13.993-37.117-32.671-5.561-43.459-68.487-43.327-74.249.106-2.471 18.621-18.355 32.565-37.14 32.565H-186V0z" fill="url(#paint3_linear_609_4)"/></mask><g mask="url(#b)"><path d="M242.628 700.503L-2409.52 945.3M302.656 700.503L-2096.91 945.3M362.685 700.503L-1784.29 945.3M422.713 700.503L-1471.67 945.3M482.759 700.503L-1159.05 945.3M542.788 700.503L-846.432 945.3M602.816 700.503L-533.812 945.3M662.845 700.503L-221.208 945.3m944.081-244.797L91.411 945.3m691.508-244.797L404.031 945.3m558.973-244.797L1341.89 945.3m-258.81-244.797L1967.13 945.3m-763.99-244.797L2592.35 945.3M1143.11 700.503L2279.73 945.3M1023.05 700.503L1654.51 945.3M902.976 700.503L1029.27 945.3M842.947 700.503L716.651 945.3m546.509-244.797L2904.97 945.3M1323.21 700.503L3217.59 945.3M1383.24 700.503L3530.22 945.3M1443.27 700.503L3842.84 945.3M1503.3 700.503L4155.44 945.3M1503.29 700.503H242.627m1295.963 3.264H207.332m1370.728 3.641H167.866m1454.644 4.102H123.408m1549.542 4.649H72.968m1657.712 5.333H15.248m1782.102 6.153H-51.43m1926.72 7.196H-129.371m2096.951 8.512H-221.653m2300.223 10.256H-332.651m2547.261 12.546H-468.689m2853.969 15.759H-639.357m3245.047 20.34H-859.764M2901.3 829.533h-4056.68m4473.91 38.509H-1572.6" stroke="#000" stroke-opacity=".46" stroke-width="2" stroke-miterlimit="10"/><path d="M242.628 700.503L-2409.52 945.3M302.656 700.503L-2096.91 945.3M362.685 700.503L-1784.29 945.3M422.713 700.503L-1471.67 945.3M482.759 700.503L-1159.05 945.3M542.788 700.503L-846.432 945.3M602.816 700.503L-533.812 945.3M662.845 700.503L-221.208 945.3m944.081-244.797L91.411 945.3m691.508-244.797L404.031 945.3m558.973-244.797L1341.89 945.3m-258.81-244.797L1967.13 945.3m-763.99-244.797L2592.35 945.3M1143.11 700.503L2279.73 945.3M1023.05 700.503L1654.51 945.3M902.976 700.503L1029.27 945.3M842.947 700.503L716.651 945.3m546.509-244.797L2904.97 945.3M1323.21 700.503L3217.59 945.3M1383.24 700.503L3530.22 945.3M1443.27 700.503L3842.84 945.3M1503.3 700.503L4155.44 945.3M1503.29 700.503H242.627m1295.963 3.264H207.332m1370.728 3.641H167.866m1454.644 4.102H123.408m1549.542 4.649H72.968m1657.712 5.333H15.248m1782.102 6.153H-51.43m1926.72 7.196H-129.371m2096.951 8.512H-221.653m2300.223 10.256H-332.651m2547.261 12.546H-468.689m2853.969 15.759H-639.357m3245.047 20.34H-859.764M2901.3 829.533h-4056.68m4473.91 38.509H-1572.6" stroke="#000" stroke-opacity=".46" stroke-width="2" stroke-miterlimit="10" opacity=".3"/><mask id="c" style="mask-type:alpha" maskUnits="userSpaceOnUse" x="-186" y="0" width="2386" height="884"><path d="M-186 0h2386v562c0 177.836-144.16 322-322 322H967.562c-18.83 0-34.727-13.993-37.117-32.671-5.561-43.459-68.487-43.327-74.249.106-2.471 18.621-18.355 32.565-37.14 32.565H-186V0z" fill="url(#paint4_linear_609_4)"/></mask><g mask="url(#c)"><path d="M242.628 700.503L-2409.52 945.3M302.656 700.503L-2096.91 945.3M362.685 700.503L-1784.29 945.3M422.713 700.503L-1471.67 945.3M482.759 700.503L-1159.05 945.3M542.788 700.503L-846.432 945.3M602.816 700.503L-533.812 945.3M662.844 700.503L-221.209 945.3m944.082-244.797L91.411 945.3m691.508-244.797L404.031 945.3m558.973-244.797L1341.89 945.3m-258.81-244.797L1967.13 945.3m-763.99-244.797L2592.35 945.3M1143.11 700.503L2279.73 945.3M1023.05 700.503L1654.51 945.3M902.975 700.503L1029.27 945.3M842.947 700.503L716.651 945.3m546.509-244.797L2904.97 945.3M1323.21 700.503L3217.59 945.3M1383.24 700.503L3530.22 945.3M1443.27 700.503L3842.84 945.3M1503.29 700.503L4155.44 945.3M1503.29 700.503H242.627m1295.963 3.264H207.332m1370.728 3.641H167.866m1454.644 4.102H123.408m1549.542 4.649H72.968m1657.712 5.333H15.248m1782.102 6.153H-51.43m1926.72 7.196H-129.371m2096.951 8.512H-221.653m2300.223 10.256H-332.651M2208.3 766H-475m2860.28 15.914H-639.357m3245.047 20.34H-859.764M2901.3 829.533h-4056.68m4473.91 38.509H-1572.6" stroke="#000" stroke-opacity=".46" stroke-width=".75" stroke-miterlimit="10"/></g></g></g></g><defs><linearGradient id="paint0_linear_609_4" x1="130.703" y1="125.206" x2="2447.96" y2="526.923" gradientUnits="userSpaceOnUse"><stop stop-color="#393939"/><stop offset=".802" stop-color="#1D1C1C"/></linearGradient><linearGradient id="paint1_linear_609_4" x1="30.396" y1="-335.741" x2="1877.02" y2="-135.139" gradientUnits="userSpaceOnUse"><stop stop-color="#2B85D8"/><stop offset=".495" stop-color="#EDB3D7"/><stop offset="1" stop-color="#EDD0AB"/></linearGradient><linearGradient id="paint3_linear_609_4" x1="130.703" y1="125.206" x2="2447.96" y2="526.923" gradientUnits="userSpaceOnUse"><stop stop-color="#393939"/><stop offset=".802" stop-color="#1D1C1C"/></linearGradient><linearGradient id="paint4_linear_609_4" x1="130.703" y1="125.206" x2="2447.96" y2="526.923" gradientUnits="userSpaceOnUse"><stop stop-color="#393939"/><stop offset=".802" stop-color="#1D1C1C"/></linearGradient><radialGradient id="paint2_radial_609_4" cx="0" cy="0" r="1" gradientUnits="userSpaceOnUse" gradientTransform="matrix(0 361.26 -1149.94 0 1142.1 361.26)"><stop stop-color="#fff"/><stop offset="1" stop-color="#fff" stop-opacity="0"/></radialGradient></defs></svg>