<svg width="1126" height="1213" fill="none" xmlns="http://www.w3.org/2000/svg"><path d="M1092.21 442.956C926.2 309.941 650.167 114.251 534.084 422.932 386.361 815.75 785.995 1155.56 424.233 1154.87M1108.3 471.608c-166.002-133.015-442.035-328.704-558.118-20.023-147.723 392.818 251.911 732.625-109.851 731.935M1124.3 499.609c-166.002-133.015-442.035-328.704-558.118-20.024-147.723 392.818 251.911 732.625-109.851 731.935m619.599-805.985C910.523 273.024 635.479 78.083 519.728 385.701c-147.3 391.467 250.888 729.999-109.631 729.389M1060.4 369.03C894.695 236.268 619.156 40.952 503.239 349.102c-147.512 392.142 251.4 731.308-109.741 730.658m648.452-745.835C876.297 201.116 600.872 5.708 485.315 313.564 338.261 705.333 737.052 1044.6 376.265 1043.66m646.005-743.845c-165.649-132.809-441.074-328.217-556.631-20.36-147.054 391.769 251.738 731.035-109.05 730.095m644.571-743.117C835.206 133.372 559.286-62.41 443.563 245.978 296.298 638.422 695.812 978.33 334.404 977.351m644.15-743.628C812.79 101.006 537.138-94.217 420.862 214.226c-147.97 392.516 251.061 731.587-110.433 731.225m643.783-741.587C788.804 71.354 513.76-123.588 398.009 184.031 250.708 575.498 648.897 914.025 288.378 913.415m640.534-738.089C763.205 42.563 487.666-152.752 371.749 155.397c-147.512 392.143 251.4 731.312-109.741 730.661h-290.51m929.189-737.871C735.036 15.377 459.611-180.03 344.054 127.826 197 519.595 595.791 858.862 235.004 857.923H-8.002m878.239-734.616C704.829-9.204 429.785-204.145 314.034 103.474c-147.3 391.466 250.889 729.994-109.631 729.383H-4.502M838.83 99.747C673.123-33.014 397.584-228.33 281.668 79.82 134.156 471.961 533.067 811.131 171.926 810.48H-3.003M799.831 81.838c-165.464-132.465-440.622-327.313-556.732-19.4C95.34 454.276 493.649 792.706 132.776 792.383l-133.779.001M758.872 66.513C593.352-65.907 318.08-260.662 201.61 47.543 53.393 439.758 451.822 778.09 90.596 778.056H-22.003M709.364 58.158C543.9-74.307 268.742-269.155 152.632 38.757c-147.76 391.84 250.55 730.27-110.323 729.947h-61.812" stroke="#fff" stroke-opacity=".16" stroke-width="2.339"/></svg>