<svg width="25" height="26" fill="none" xmlns="http://www.w3.org/2000/svg"><g clip-path="url(#clip0_430_269)"><path d="M21.3 21.8h-3.704V16c0-1.384-.025-3.164-1.927-3.164-1.929 0-2.224 1.507-2.224 3.063V21.8H9.74V9.871h3.556v1.63h.05a3.897 3.897 0 013.508-1.927c3.755 0 4.447 2.47 4.447 5.683L21.3 21.8zM5.561 8.24a2.15 2.15 0 110-4.299 2.15 2.15 0 010 4.3zM7.413 21.8H3.705V9.872h3.708v11.93zM23.147.502H1.844A1.824 1.824 0 00-.001 2.303v21.392a1.826 1.826 0 001.845 1.804h21.303a1.83 1.83 0 001.852-1.804V2.301A1.828 1.828 0 0023.147.5" fill="#0A66C2"/></g><defs><clipPath id="clip0_430_269"><path fill="#fff" transform="translate(0 .5)" d="M0 0h25v25H0z"/></clipPath></defs></svg>