<svg width="33" height="49" fill="none" xmlns="http://www.w3.org/2000/svg"><path d="M16.533 0a16.284 16.284 0 017.211 1.68 16.55 16.55 0 015.763 4.713 16.136 16.136 0 00-7.374-1.869 16.13 16.13 0 00-7.41 1.722c-3.917 1.99-7.54 5.841-7.54 10.546 0 1.699.448 3.366 1.298 4.828a9.42 9.42 0 003.533 3.488 9.232 9.232 0 009.5-.277 9.445 9.445 0 003.331-3.688 9.626 9.626 0 00-.545-9.64 9.395 9.395 0 00-3.724-3.277c6.788-.74 13.452 3.426 12.292 11.13a16.856 16.856 0 01-3.415 7.905l-.156.196-.033.042-.03.035-.136.164a16.69 16.69 0 01-3.262 2.969 16.387 16.387 0 01-8.705 2.899h-.033c-.186 0-.373.01-.561.01a16.31 16.31 0 01-3.732-.43l-.337-.084-.17-.045-.191-.052-.194-.057-.164-.049-.2-.064-.152-.049-.223-.076-.073-.026-.295-.095-.337-.13-.335-.14-.311-.136-.026-.012-.277-.13-.07-.031-.22-.11a16.67 16.67 0 01-7.64-7.88A17.038 17.038 0 01.43 12.985 16.827 16.827 0 016.255 3.64 16.366 16.366 0 0116.534 0zm11.501 37.5c2.19 0 4.022 1.855 3.08 3.832a9.92 9.92 0 01-.294.569c-.779 1.395-1.92 2.663-3.36 3.73-1.44 1.069-3.148 1.916-5.028 2.494A20.272 20.272 0 0116.5 49c-2.036 0-4.051-.297-5.932-.875-1.88-.578-3.589-1.425-5.028-2.493-1.44-1.068-2.581-2.336-3.36-3.731a9.946 9.946 0 01-.294-.569c-.942-1.977.89-3.832 3.08-3.832h1.717c1.242 0 2.22 1.064 2.825 2.149.38.681.938 1.3 1.64 1.821a8.128 8.128 0 002.456 1.218 9.897 9.897 0 002.896.427c.994 0 1.978-.145 2.896-.428a8.128 8.128 0 002.455-1.217c.703-.521 1.26-1.14 1.64-1.821.606-1.085 1.584-2.149 2.826-2.149h1.717z" fill="#fff"/></svg>