<svg width="34" height="35" fill="none" xmlns="http://www.w3.org/2000/svg"><path d="M21.731 11.063c-3.392-4.99-7.921-7.642-10.293-6.017a2.735 2.735 0 00-.67.674c0 .02-5.492 11.133-5.492 11.133L2.21 18.93a4.33 4.33 0 00-1.15 6.017l.138.203a4.338 4.338 0 005.99 1.15l4.924 7.254c.724.893 2.116 1.782 3.832.736a2.595 2.595 0 001.15-1.763 2.745 2.745 0 00-.425-2.07l-4.338-6.4s10.255-.816 10.293-.831c.32-.067.624-.197.893-.383 1.218-.828 1.655-2.564 1.234-4.89-.38-2.142-1.456-4.568-3.02-6.89zM2.313 24.395l-.138-.203a2.985 2.985 0 01.797-4.15L5.62 18.24l3.495 5.147-2.648 1.801a2.99 2.99 0 01-4.154-.793zm13.252 6.817a1.418 1.418 0 01-2.353 1.583l-4.909-7.231 1.974-1.342.52-.042 4.768 7.032zm-5.181-8.346l-3.81-5.61 3.634-7.408c.352 2.08 1.383 4.552 3.03 6.978 1.649 2.426 3.565 4.296 5.366 5.392l-8.22.648zm11.305-.893c-1.832-.119-4.813-2.184-7.339-5.906-2.525-3.72-3.345-7.242-2.782-8.994a1.633 1.633 0 011.533-1.15c1.816 0 4.909 2.078 7.507 5.906 1.464 2.154 2.53 4.407 2.82 6.377.572 3.767-1.74 3.767-1.74 3.767z" fill="#2E2E2E"/><path d="M16.94 11.204a3.599 3.599 0 00-2.728.564.674.674 0 00.767 1.107 2.3 2.3 0 012.583 3.806.671.671 0 00.383 1.222.654.654 0 00.383-.115 3.636 3.636 0 00-1.36-6.584h-.027zm5.619-4.805h.065a.67.67 0 00.667-.602L23.808.77a.671.671 0 10-1.334-.138l-.513 5.032a.67.67 0 00.598.736zm8.668-1.035a.675.675 0 00-.931-.191l-4.671 3.065a.67.67 0 00.383 1.23.682.682 0 00.383-.107l4.672-3.066a.67.67 0 00.164-.93zm1.43 8.186l-5.434-.978a.672.672 0 00-.238 1.323l5.43.977h.119a.67.67 0 00.119-1.334l.004.012z" fill="#2E2E2E"/></svg>