<svg width="32" height="33" fill="none" xmlns="http://www.w3.org/2000/svg"><g clip-path="url(#clip0_430_139)" fill="#2E2E2E"><path d="M25.301 28.227H.728a.656.656 0 01-.656-.656V13.505a.656.656 0 01.656-.656h24.573a.656.656 0 01.656.656v14.066a.656.656 0 01-.656.656zM1.384 26.914h23.261V14.161H1.385v12.753z"/><path d="M21.07 26.238H4.962a.656.656 0 01-.656-.656 1.32 1.32 0 00-1.318-1.317.656.656 0 01-.656-.656v-6.142a.656.656 0 01.656-.656 1.32 1.32 0 001.318-1.317.656.656 0 01.656-.657H21.07a.657.657 0 01.657.657 1.319 1.319 0 001.312 1.317.656.656 0 01.656.657v6.141a.656.656 0 01-.656.656 1.318 1.318 0 00-1.317 1.317.656.656 0 01-.652.656zM5.54 24.926H20.5a2.641 2.641 0 011.883-1.893V18.04a2.64 2.64 0 01-1.89-1.89H5.534a2.639 2.639 0 01-1.89 1.89v4.993a2.64 2.64 0 011.89 1.893h.004z"/><path d="M13.015 24.155a3.617 3.617 0 11-.002-7.233 3.617 3.617 0 01.002 7.233zm0-5.921a2.305 2.305 0 10-.001 4.61 2.305 2.305 0 000-4.61z"/><path d="M26.858 24.469a.656.656 0 01-.066-1.31l.757-.079-1.332-12.682-21.125 2.218a.656.656 0 11-.137-1.306L26.73 9.023a.657.657 0 01.722.584l1.47 13.989a.657.657 0 01-.585.722l-1.41.148c-.023.001-.046.003-.07.003z"/><path d="M29.842 20.57a.656.656 0 01-.123-1.3l.427-.082-2.403-12.524-20.566 3.945a.657.657 0 11-.248-1.29l21.212-4.07a.656.656 0 01.767.52l2.65 13.815a.656.656 0 01-.52.768l-1.072.205a.662.662 0 01-.124.014z"/></g><defs><clipPath id="clip0_430_139"><path fill="#fff" transform="translate(.072 .984)" d="M0 0h31.498v31.498H0z"/></clipPath></defs></svg>