<svg width="36" height="41" fill="none" xmlns="http://www.w3.org/2000/svg"><path d="M35.442 10.303L18.763.639a.757.757 0 00-.76 0L1.325 10.303a.759.759 0 00-.378.656v19.332c0 .27.144.52.378.656l16.678 9.666a.755.755 0 00.76 0l16.679-9.666a.759.759 0 00.378-.656V10.96c0-.27-.145-.52-.378-.655zm-1.138 19.551l-15.92 9.227-15.921-9.227V11.396l15.92-9.226 15.92 9.226v18.458z" fill="#2E2E2E"/><path d="M18.031 5.07L4.673 12.6a.682.682 0 00-.351.593v15.064c0 .245.134.47.35.593l13.36 7.532a.717.717 0 00.704 0l13.358-7.532a.682.682 0 00.351-.593V13.194a.682.682 0 00-.35-.593L18.734 5.07a.718.718 0 00-.704 0zm13.008 8.519v14.275L18.384 35 5.728 27.864V13.589l12.656-7.136 12.655 7.136z" fill="#2E2E2E"/><path d="M12.759 12.852a.574.574 0 00-.563.585v9.85l-2.279-7.11a.566.566 0 00-.623-.393.579.579 0 00-.473.578v8.774c0 .323.252.585.563.585.31 0 .562-.262.562-.585v-5.17l2.28 7.11a.565.565 0 00.623.392.579.579 0 00.472-.577V13.437a.574.574 0 00-.562-.585zm5.335-3.288l-3.376 2.186a.611.611 0 00-.272.515v16.859c0 .332.252.602.563.602.311 0 .563-.27.563-.602v-7.827h3.376c.31 0 .562-.27.562-.602 0-.333-.251-.603-.562-.603h-3.376v-7.487l2.818-1.826 3.085 1.927a.542.542 0 00.769-.216.626.626 0 00-.202-.824L18.669 9.56a.532.532 0 00-.575.005zm5.629 4.358l1.473.877v12.104c0 .317.246.573.55.573.304 0 .55-.256.55-.573v-11.45l.827.493c.086.05.18.075.272.075a.546.546 0 00.478-.289.586.586 0 00-.205-.78l-3.4-2.024a.537.537 0 00-.75.213.585.585 0 00.205.781z" fill="#2E2E2E"/></svg>