<svg width="150" height="149" fill="none" xmlns="http://www.w3.org/2000/svg"><g filter="url(#filter0_d_620_3)"><circle cx="74.748" cy="58.748" r="42.748" fill="url(#paint0_radial_620_3)"/><circle cx="74.748" cy="58.748" r="42.748" fill="url(#paint1_linear_620_3)"/><circle cx="74.748" cy="58.748" r="46.167" stroke="#fff" stroke-width="6.84"/></g><path d="M53.44 67.407h-2.875V56.239h-3.683v-2.393h10.241v2.393H53.44v11.17zm7.802-5.204c0 1.027.167 1.803.501 2.329.34.525.89.788 1.651.788.755 0 1.296-.26 1.624-.779.334-.526.5-1.305.5-2.338 0-1.026-.166-1.796-.5-2.31-.334-.513-.882-.77-1.642-.77-.755 0-1.299.257-1.633.77-.334.507-.5 1.277-.5 2.31zm7.171 0c0 1.689-.445 3.009-1.336 3.961-.89.953-2.13 1.43-3.72 1.43-.995 0-1.874-.217-2.634-.65a4.38 4.38 0 01-1.754-1.883c-.408-.817-.612-1.77-.612-2.858 0-1.694.442-3.012 1.327-3.952.884-.94 2.127-1.41 3.729-1.41.996 0 1.874.217 2.635.65a4.335 4.335 0 011.753 1.864c.408.81.612 1.76.612 2.848zm5.622 5.39c-1.218 0-2.177-.473-2.876-1.42-.693-.945-1.039-2.257-1.039-3.933 0-1.7.353-3.024 1.058-3.97.71-.953 1.688-1.429 2.931-1.429 1.305 0 2.3.507 2.987 1.522h.093a11.561 11.561 0 01-.213-2.07v-3.32h2.838v14.434h-2.17l-.548-1.345h-.12c-.644 1.02-1.624 1.531-2.941 1.531zm.993-2.254c.723 0 1.252-.21 1.586-.631.34-.42.525-1.135.556-2.143v-.306c0-1.113-.173-1.911-.52-2.394-.34-.482-.896-.723-1.669-.723-.63 0-1.122.269-1.475.807-.346.532-.52 1.308-.52 2.328 0 1.02.177 1.788.53 2.301.352.507.856.76 1.511.76zm14.332 2.069l-.547-1.41h-.074c-.477.6-.968 1.017-1.475 1.252-.501.229-1.157.343-1.967.343-.996 0-1.781-.284-2.356-.853-.57-.57-.854-1.38-.854-2.43 0-1.102.384-1.912 1.15-2.431.773-.526 1.936-.817 3.489-.872l1.8-.056v-.455c0-1.051-.539-1.577-1.615-1.577-.829 0-1.803.25-2.922.752l-.937-1.911c1.194-.625 2.517-.937 3.97-.937 1.392 0 2.459.303 3.2.909.743.606 1.114 1.527 1.114 2.764v6.911H89.36zm-.835-4.806l-1.094.037c-.823.025-1.435.173-1.837.445-.402.273-.603.687-.603 1.244 0 .797.457 1.196 1.373 1.196.655 0 1.178-.188 1.568-.566.395-.377.593-.878.593-1.502v-.854zm4.25-5.566h3.097l1.958 5.835c.167.507.281 1.107.343 1.8h.056a7.957 7.957 0 01.399-1.8l1.92-5.835h3.034l-4.388 11.698c-.402 1.082-.978 1.893-1.726 2.43-.742.539-1.61.808-2.607.808a6.58 6.58 0 01-1.438-.158v-2.245c.34.08.712.12 1.114.12.5 0 .937-.154 1.308-.463.377-.303.67-.764.881-1.382l.167-.51-4.119-10.298z" fill="#fff"/><defs><radialGradient id="paint0_radial_620_3" cx="0" cy="0" r="1" gradientUnits="userSpaceOnUse" gradientTransform="rotate(96.86 44.553 48.28) scale(75.3478)"><stop stop-color="#D40F34"/><stop offset="1" stop-color="#EC3C5D"/></radialGradient><linearGradient id="paint1_linear_620_3" x1="37.283" y1="35.573" x2="107.049" y2="80.242" gradientUnits="userSpaceOnUse"><stop stop-color="#FEC400"/><stop offset="1" stop-color="#D2A304"/></linearGradient><filter id="filter0_d_620_3" x=".412" y=".161" width="148.672" height="148.672" filterUnits="userSpaceOnUse" color-interpolation-filters="sRGB"><feFlood flood-opacity="0" result="BackgroundImageFix"/><feColorMatrix in="SourceAlpha" values="0 0 0 0 0 0 0 0 0 0 0 0 0 0 0 0 0 0 127 0" result="hardAlpha"/><feOffset dy="15.749"/><feGaussianBlur stdDeviation="12.374"/><feComposite in2="hardAlpha" operator="out"/><feColorMatrix values="0 0 0 0 0 0 0 0 0 0 0 0 0 0 0 0 0 0 0.14 0"/><feBlend in2="BackgroundImageFix" result="effect1_dropShadow_620_3"/><feBlend in="SourceGraphic" in2="effect1_dropShadow_620_3" result="shape"/></filter></defs></svg>