<svg width="1320" height="671" fill="none" xmlns="http://www.w3.org/2000/svg"><path d="M215.613 283.689l-.702 3.301 1.556.331 1.245-.99-2.099-2.642zm446.816-106.086l-2.09-2.65 2.09 2.65zm-220.26 50.005l-2.09-2.649 2.09 2.649zm211.663-43.224l-2.091-2.65 2.091 2.65zM1121.54 62.667l-1.89-2.8 1.89 2.8zm-240.49 66.026l-2.128-2.619 2.128 2.619zm203.7-41.263l-1.88-2.8 1.88 2.8zm-210.676 46.928l2.128 2.619-2.128-2.619zm-439.459 99.209l-2.09-2.65 2.09 2.65zm-241.85 48.711l22.146 4.712 1.405-6.602-22.147-4.712-1.404 6.602zm24.947 4.053l9.269-7.361-4.198-5.285-9.269 7.361 4.198 5.285zm658.49-149.354l6.975-5.664-4.255-5.239-6.975 5.664 4.255 5.239zm210.438-46.748l36.78-24.763-3.77-5.599-36.78 24.763 3.77 5.6zM436.705 236.216l7.554-5.958-4.18-5.299-7.554 5.958 4.18 5.299zm219.217-49.182l8.597-6.781-4.18-5.3-8.598 6.781 4.181 5.3zm8.597-6.781c57.937-45.7 134.097-61.253 205.313-41.928l1.768-6.514c-73.279-19.885-151.646-3.881-211.261 43.142l4.18 5.3zm-220.26 50.005c58.324-46.005 134.994-61.662 206.686-42.208l1.767-6.514c-73.755-20.014-152.63-3.906-212.633 43.423l4.18 5.299zm206.686-42.208a5.646 5.646 0 004.977-1.016l-4.181-5.3c.274-.216.634-.289.971-.198l-1.767 6.514zM1123.42 65.466a220.489 220.489 0 01194.11-25.842l2.17-6.39c-67.18-22.846-141.18-12.994-200.05 26.633l3.77 5.6zm-240.243 65.847c55.759-45.277 130.163-60.373 199.153-40.41l1.88-6.483c-71.12-20.578-147.812-5.018-205.288 41.654l4.255 5.239zM226.981 278.97c57.399-45.588 133.117-61.027 203.783-41.552l1.793-6.508c-72.744-20.047-150.687-4.153-209.774 42.775l4.198 5.285zM5.367 336.943c49.325-48.532 119.716-69.065 187.398-54.665l1.404-6.602C124.27 260.805 51.574 282.01.633 332.131l4.734 4.812zM1082.33 90.903c1.47.424 3.04.177 4.31-.674l-3.77-5.599c.39-.265.88-.342 1.34-.21l-1.88 6.484zm-210.383 40.835a.388.388 0 01-.347.073l-1.768 6.514c2.216.602 4.587.1 6.37-1.348l-4.255-5.239zm-441.183 105.68a6.713 6.713 0 005.941-1.202l-4.18-5.299a.037.037 0 01.032-.007l-1.793 6.508z" fill="url(#paint0_linear_682_2)"/><path d="M215.613 283.689l-.702 3.301 1.556.331 1.245-.99-2.099-2.642zm446.816-106.086l-2.09-2.65 2.09 2.65zm-220.26 50.005l-2.09-2.649 2.09 2.649zm211.663-43.224l-2.091-2.65 2.091 2.65zM1121.54 62.667l-1.89-2.8 1.89 2.8zm-240.49 66.026l-2.128-2.619 2.128 2.619zm203.7-41.263l-1.88-2.8 1.88 2.8zm-210.676 46.928l2.128 2.619-2.128-2.619zm-439.459 99.209l-2.09-2.65 2.09 2.65zm-241.85 48.711l22.146 4.712 1.405-6.602-22.147-4.712-1.404 6.602zm24.947 4.053l9.269-7.361-4.198-5.285-9.269 7.361 4.198 5.285zm658.49-149.354l6.975-5.664-4.255-5.239-6.975 5.664 4.255 5.239zm210.438-46.748l36.78-24.763-3.77-5.599-36.78 24.763 3.77 5.6zM436.705 236.216l7.554-5.958-4.18-5.299-7.554 5.958 4.18 5.299zm219.217-49.182l8.597-6.781-4.18-5.3-8.598 6.781 4.181 5.3zm8.597-6.781c57.937-45.7 134.097-61.253 205.313-41.928l1.768-6.514c-73.279-19.885-151.646-3.881-211.261 43.142l4.18 5.3zm-220.26 50.005c58.324-46.005 134.994-61.662 206.686-42.208l1.767-6.514c-73.755-20.014-152.63-3.906-212.633 43.423l4.18 5.299zm206.686-42.208a5.646 5.646 0 004.977-1.016l-4.181-5.3c.274-.216.634-.289.971-.198l-1.767 6.514zM1123.42 65.466a220.489 220.489 0 01194.11-25.842l2.17-6.39c-67.18-22.846-141.18-12.994-200.05 26.633l3.77 5.6zm-240.243 65.847c55.759-45.277 130.163-60.373 199.153-40.41l1.88-6.483c-71.12-20.578-147.812-5.018-205.288 41.654l4.255 5.239zM226.981 278.97c57.399-45.588 133.117-61.027 203.783-41.552l1.793-6.508c-72.744-20.047-150.687-4.153-209.774 42.775l4.198 5.285zM5.367 336.943c49.325-48.532 119.716-69.065 187.398-54.665l1.404-6.602C124.27 260.805 51.574 282.01.633 332.131l4.734 4.812zM1082.33 90.903c1.47.424 3.04.177 4.31-.674l-3.77-5.599c.39-.265.88-.342 1.34-.21l-1.88 6.484zm-210.383 40.835a.388.388 0 01-.347.073l-1.768 6.514c2.216.602 4.587.1 6.37-1.348l-4.255-5.239zm-441.183 105.68a6.713 6.713 0 005.941-1.202l-4.18-5.299a.037.037 0 01.032-.007l-1.793 6.508z" fill="url(#paint1_linear_682_2)"/><path d="M431.536 234.192c-44.089-10.535-69.35-12.908-113.975-9.337v445.476H1318.61V36.428c-66.18-22.506-139.08-12.8-197.07 26.239l-36.79 24.763c-.43.293-.98.378-1.48.232-70.06-20.271-145.603-4.943-202.22 41.031l-6.976 5.665a3.764 3.764 0 01-3.358.71c-72.247-19.605-149.511-3.827-208.287 42.535l-8.597 6.781a2.273 2.273 0 01-2.004.409c-72.723-19.734-150.496-3.852-209.659 42.815l-7.476 5.897c-.887.7-2.059.949-3.157.687z" fill="url(#paint2_linear_682_2)" fill-opacity=".12"/><defs><linearGradient id="paint0_linear_682_2" x1="1356.3" y1="33.61" x2="341.322" y2="784.144" gradientUnits="userSpaceOnUse"><stop stop-color="#D40F34"/><stop offset="1" stop-color="#FF617E"/></linearGradient><linearGradient id="paint1_linear_682_2" x1="50.781" y1="98.24" x2="227.465" y2="600.01" gradientUnits="userSpaceOnUse"><stop stop-color="#FEC400"/><stop offset="1" stop-color="#D2A304"/></linearGradient><linearGradient id="paint2_linear_682_2" x1="361.293" y1="223.73" x2="114.029" y2="354.536" gradientUnits="userSpaceOnUse"><stop stop-color="#FEC400"/><stop offset="1" stop-color="#D2A304" stop-opacity="0"/></linearGradient></defs></svg>