<svg width="1348" height="790" fill="none" xmlns="http://www.w3.org/2000/svg"><path d="M702.565-120.791C540.93 17.504 297.206 252.211 578.83 423.811c358.387 218.374 766.75-110.894 698.62 244.395l-43.62 229.826M733.716-131.264C572.082 7.031 328.357 241.737 609.981 413.338 968.368 631.712 1376.73 302.444 1308.6 657.733l-46.62 245.642M764.209-141.763C602.575-3.468 358.85 231.239 640.474 402.839 998.861 621.213 1407.22 291.945 1339.1 647.234l-55.29 291.327M662.765-111.777c-161.028 137.8-403.832 371.675-123.19 542.751 357.138 217.707 763.975-110.381 696.155 243.703l-40.98 215.938M624.006-103.327C462.674 34.721 219.41 269.011 500.543 440.35 858.306 658.39 1265.9 329.712 1197.93 684.399l-39.84 209.946M586.075-91.742c-161.366 137.984-404.7 372.145-123.788 543.076 357.481 217.521 765.153-111.021 696.963 243.264l-36.63 193.015M548.895-78.77C387.529 59.213 144.194 293.375 425.107 464.305c357.481 217.521 765.153-111.021 696.963 243.264l-31 163.369M512.161-64.249c-161.669 138.23-405.463 372.808-124.06 544.001 358.105 217.854 766.539-111.278 698.199 243.61l-28.83 151.888M475.81-48.142C314.513 89.969 71.319 324.389 352.674 496.136c358.043 218.559 765.566-110.255 697.816 244.833l-25.83 136.073M441.936-29.794C280.909 108.007 38.104 341.881 318.747 512.957 675.885 730.664 1082.72 402.576 1014.9 756.66l-18.286 96.353M409.181-10.259C247.85 127.79 4.586 362.08 285.719 533.418c357.763 218.04 765.361-110.638 697.387 244.049L928.94 1062.88M377.255 12.411C215.89 150.395-27.445 384.556 253.468 555.487c357.48 217.521 765.152-111.021 696.962 243.264L905.121 1037.5M347.134 37.688C186.107 175.49-56.698 409.363 223.945 580.44c357.138 217.706 763.972-110.382 696.153 243.702l-38.951 205.238M318.133 64.151C156.802 202.2-86.463 436.49 194.671 607.828c357.762 218.04 765.36-110.638 697.386 244.049l-32.615 171.863M293.266 99.128C132.273 236.992-110.462 470.996 170.402 642.48 527.821 860.706 934.581 532.482 866.98 886.967L842.037 1018.4M270.572 136.511C109.614 274.439-133.051 508.572 148.034 680.465 505.735 899.21 912.421 570.85 845.037 925.736l-20.994 110.624m-570.91-852.767C92.14 321.458-150.595 555.461 130.269 726.946c357.419 218.226 764.18-109.998 696.578 244.487l-11.525 60.727" stroke="#fff" stroke-opacity=".2" stroke-width="2.339"/></svg>