<svg width="628" height="591" fill="none" xmlns="http://www.w3.org/2000/svg"><circle cx="332.5" cy="295.163" r="281.5" fill="#fff" fill-opacity=".27"/><path d="M18.036 42.663a18.02 18.02 0 017.867 1.801 17.994 17.994 0 016.287 5.054 17.848 17.848 0 00-16.128-.158c-4.274 2.134-8.226 6.263-8.226 11.307 0 1.821.489 3.609 1.416 5.177a10.194 10.194 0 003.854 3.74 10.214 10.214 0 0010.365-.298 10.174 10.174 0 003.039-14.291 10.197 10.197 0 00-4.063-3.513c7.404-.793 14.675 3.673 13.409 11.934a17.917 17.917 0 01-3.725 8.476l-.17.21-.037.044-.033.038-.148.176a18.095 18.095 0 01-3.558 3.183 18.086 18.086 0 01-9.497 3.108h-.036c-.203 0-.407.012-.612.012a18.11 18.11 0 01-4.071-.463l-.367-.089-.185-.048-.21-.056-.211-.061-.179-.052-.219-.07-.165-.051-.243-.082-.08-.028-.322-.102-.367-.14-.366-.149-.339-.146-.028-.013-.302-.139-.077-.034-.24-.117a18.018 18.018 0 01-8.334-8.448A17.982 17.982 0 01.47 56.584a18.003 18.003 0 016.352-10.02 18.05 18.05 0 0111.214-3.901zm12.614 40.5c2.403 0 4.41 2.036 3.363 4.198-.096.197-.198.392-.307.585-.854 1.517-2.107 2.895-3.685 4.055-1.579 1.161-3.453 2.082-5.515 2.71a22.418 22.418 0 01-6.506.952c-2.232 0-4.443-.324-6.506-.952-2.062-.628-3.936-1.549-5.515-2.71-1.578-1.16-2.83-2.538-3.685-4.055a10.762 10.762 0 01-.307-.585c-1.048-2.162.96-4.198 3.363-4.198h1.903c1.351 0 2.415 1.158 3.079 2.335.417.74 1.028 1.413 1.799 1.98a8.95 8.95 0 002.693 1.323c1.007.307 2.086.465 3.176.465 1.09 0 2.17-.158 3.176-.465a8.95 8.95 0 002.693-1.323c.77-.567 1.382-1.24 1.8-1.98.663-1.177 1.727-2.335 3.078-2.335h1.903z" fill="#fff"/><circle cx="332.5" cy="295.163" r="281.5" stroke="#5C5C5C" stroke-width="27"/><g filter="url(#filter0_iii_424_308)"><ellipse cx="371.743" cy="163.03" rx="13.743" ry="14.368" fill="url(#paint0_linear_424_308)"/><ellipse cx="371.743" cy="163.03" rx="13.743" ry="14.368" fill="url(#paint1_linear_424_308)"/><ellipse cx="371.743" cy="163.03" rx="13.743" ry="14.368" fill="url(#paint2_linear_424_308)"/></g><g filter="url(#filter1_iiii_424_308)"><circle cx="510.766" cy="254.188" r="36.185" fill="url(#paint3_linear_424_308)"/></g><g filter="url(#filter2_iiii_424_308)"><circle cx="424.234" cy="201.897" r="16.234" fill="url(#paint4_linear_424_308)"/><circle cx="424.234" cy="201.897" r="16.234" fill="url(#paint5_linear_424_308)"/></g><g filter="url(#filter3_iiii_424_308)"><circle cx="493.737" cy="181.818" r="19.157" fill="url(#paint6_linear_424_308)"/><circle cx="493.737" cy="181.818" r="19.157" fill="url(#paint7_linear_424_308)"/></g><g filter="url(#filter4_iiii_424_308)"><circle cx="320.793" cy="362.212" r="144.209" fill="url(#paint8_linear_424_308)"/></g><g filter="url(#filter5_iiii_424_308)"><circle cx="260.131" cy="140.794" r="60.131" fill="url(#paint9_linear_424_308)"/></g><g filter="url(#filter6_d_424_308)"><path d="M297.984 381.809h-8.047v13.854H276.13v-13.854H247.6v-9.83l29.307-43.16h13.03v42.017h8.047v10.973zm-21.854-10.973v-11.338c0-1.89.076-4.633.228-8.23.153-3.597.275-5.685.366-6.264h-.366a50.913 50.913 0 01-4.069 7.316l-12.253 18.516h16.094zm73.473-8.595c0 11.674-1.921 20.315-5.761 25.923-3.81 5.609-9.693 8.413-17.648 8.413-7.712 0-13.534-2.896-17.466-8.687-3.901-5.791-5.852-14.341-5.852-25.649 0-11.796 1.905-20.483 5.715-26.061 3.81-5.608 9.678-8.412 17.603-8.412 7.711 0 13.533 2.926 17.465 8.778 3.962 5.852 5.944 14.417 5.944 25.695zm-32.691 0c0 8.199.701 14.082 2.104 17.648 1.432 3.536 3.825 5.304 7.178 5.304 3.292 0 5.669-1.799 7.132-5.395 1.463-3.597 2.195-9.449 2.195-17.557 0-8.199-.747-14.082-2.241-17.648-1.463-3.597-3.825-5.395-7.086-5.395-3.323 0-5.7 1.798-7.133 5.395-1.432 3.566-2.149 9.449-2.149 17.648zm43.393 9.629c0 1.967.17 3.439.511 4.415.356.96.922 1.44 1.696 1.44 1.487 0 2.231-1.952 2.231-5.855 0-3.873-.744-5.809-2.231-5.809-.774 0-1.34.48-1.696 1.441-.341.945-.511 2.401-.511 4.368zm10.293-.046c0 3.562-.689 6.242-2.068 8.039-1.379 1.781-3.4 2.672-6.064 2.672-2.556 0-4.531-.914-5.925-2.742-1.394-1.843-2.091-4.5-2.091-7.969 0-7.079 2.672-10.619 8.016-10.619 2.618 0 4.623.922 6.018 2.765 1.409 1.828 2.114 4.446 2.114 7.854zm15.986-10.131l-18.844 33.97h-5.576l18.843-33.97h5.577zm-2.486 23.746c0 1.967.17 3.439.511 4.415.356.96.921 1.44 1.696 1.44 1.487 0 2.23-1.951 2.23-5.855 0-3.872-.743-5.809-2.23-5.809-.775 0-1.34.481-1.696 1.441-.341.945-.511 2.401-.511 4.368zm10.293-.046c0 3.547-.69 6.219-2.068 8.016-1.379 1.781-3.4 2.672-6.065 2.672-2.555 0-4.53-.914-5.925-2.742-1.394-1.843-2.091-4.492-2.091-7.946 0-7.079 2.672-10.619 8.016-10.619 2.618 0 4.624.922 6.018 2.765 1.41 1.828 2.115 4.446 2.115 7.854z" fill="#000" fill-opacity=".77" shape-rendering="crispEdges"/></g><g filter="url(#filter7_i_424_308)"><path d="M297.984 381.809h-8.047v13.854H276.13v-13.854H247.6v-9.83l29.307-43.16h13.03v42.017h8.047v10.973zm-21.854-10.973v-11.338c0-1.89.076-4.633.228-8.23.153-3.597.275-5.685.366-6.264h-.366a50.913 50.913 0 01-4.069 7.316l-12.253 18.516h16.094zm73.473-8.595c0 11.674-1.921 20.315-5.761 25.923-3.81 5.609-9.693 8.413-17.648 8.413-7.712 0-13.534-2.896-17.466-8.687-3.901-5.791-5.852-14.341-5.852-25.649 0-11.796 1.905-20.483 5.715-26.061 3.81-5.608 9.678-8.412 17.603-8.412 7.711 0 13.533 2.926 17.465 8.778 3.962 5.852 5.944 14.417 5.944 25.695zm-32.691 0c0 8.199.701 14.082 2.104 17.648 1.432 3.536 3.825 5.304 7.178 5.304 3.292 0 5.669-1.799 7.132-5.395 1.463-3.597 2.195-9.449 2.195-17.557 0-8.199-.747-14.082-2.241-17.648-1.463-3.597-3.825-5.395-7.086-5.395-3.323 0-5.7 1.798-7.133 5.395-1.432 3.566-2.149 9.449-2.149 17.648zm43.393 9.629c0 1.967.17 3.439.511 4.415.356.96.922 1.44 1.696 1.44 1.487 0 2.231-1.952 2.231-5.855 0-3.873-.744-5.809-2.231-5.809-.774 0-1.34.48-1.696 1.441-.341.945-.511 2.401-.511 4.368zm10.293-.046c0 3.562-.689 6.242-2.068 8.039-1.379 1.781-3.4 2.672-6.064 2.672-2.556 0-4.531-.914-5.925-2.742-1.394-1.843-2.091-4.5-2.091-7.969 0-7.079 2.672-10.619 8.016-10.619 2.618 0 4.623.922 6.018 2.765 1.409 1.828 2.114 4.446 2.114 7.854zm15.986-10.131l-18.844 33.97h-5.576l18.843-33.97h5.577zm-2.486 23.746c0 1.967.17 3.439.511 4.415.356.96.921 1.44 1.696 1.44 1.487 0 2.23-1.951 2.23-5.855 0-3.872-.743-5.809-2.23-5.809-.775 0-1.34.481-1.696 1.441-.341.945-.511 2.401-.511 4.368zm10.293-.046c0 3.547-.69 6.219-2.068 8.016-1.379 1.781-3.4 2.672-6.065 2.672-2.555 0-4.53-.914-5.925-2.742-1.394-1.843-2.091-4.492-2.091-7.946 0-7.079 2.672-10.619 8.016-10.619 2.618 0 4.624.922 6.018 2.765 1.41 1.828 2.115 4.446 2.115 7.854z" fill="#323030" fill-opacity=".77"/></g><g filter="url(#filter8_i_424_308)"><path d="M250.772 154.526h-17.444v-3.669l6.264-6.333c1.855-1.9 3.067-3.215 3.636-3.943.569-.74.979-1.422 1.229-2.048.25-.626.375-1.275.375-1.946 0-1.001-.278-1.747-.836-2.236-.546-.489-1.28-.734-2.202-.734-.967 0-1.906.222-2.816.666-.911.443-1.861 1.075-2.851 1.894l-2.867-3.396c1.229-1.047 2.247-1.787 3.055-2.219a10.91 10.91 0 012.646-.99c.956-.239 2.025-.359 3.209-.359 1.559 0 2.935.285 4.13.854 1.195.569 2.123 1.365 2.783 2.389.66 1.024.99 2.197.99 3.517 0 1.149-.205 2.23-.615 3.243-.398 1.001-1.024 2.031-1.878 3.089-.842 1.058-2.332 2.566-4.472 4.523l-3.209 3.022v.239h10.873v4.437zm11.607-15.942c2.413 0 4.33.677 5.753 2.031 1.433 1.354 2.15 3.209 2.15 5.565 0 2.788-.859 4.933-2.577 6.435-1.718 1.502-4.176 2.253-7.374 2.253-2.777 0-5.018-.45-6.725-1.349v-4.557c.899.478 1.946.871 3.141 1.178 1.194.296 2.327.444 3.396.444 3.221 0 4.831-1.32 4.831-3.96 0-2.515-1.667-3.773-5.001-3.773-.604 0-1.269.063-1.998.188-.728.114-1.32.239-1.775.376l-2.099-1.127.939-12.716h13.535v4.472h-8.91l-.461 4.899.598-.12c.694-.159 1.553-.239 2.577-.239zm12.223 7.06c0 .734.064 1.284.191 1.648.133.359.344.538.633.538.555 0 .833-.729.833-2.186 0-1.446-.278-2.169-.833-2.169-.289 0-.5.18-.633.538-.127.353-.191.896-.191 1.631zm3.843-.017c0 1.33-.258 2.33-.772 3.001-.515.665-1.27.997-2.264.997-.954 0-1.692-.341-2.212-1.023-.521-.688-.781-1.68-.781-2.975 0-2.643.998-3.965 2.993-3.965.977 0 1.726.344 2.246 1.033.527.682.79 1.659.79 2.932zm5.968-3.782l-7.035 12.681h-2.082l7.035-12.681h2.082zm-.928 8.865c0 .734.063 1.284.19 1.648.133.358.345.538.634.538.555 0 .832-.729.832-2.186 0-1.446-.277-2.169-.832-2.169-.289 0-.501.179-.634.538-.127.353-.19.896-.19 1.631zm3.842-.018c0 1.325-.257 2.322-.772 2.993-.514.665-1.269.998-2.264.998-.954 0-1.691-.342-2.212-1.024-.52-.688-.78-1.677-.78-2.967 0-2.642.997-3.964 2.992-3.964.978 0 1.727.344 2.247 1.032.526.683.789 1.66.789 2.932z" fill="#323030" fill-opacity=".77"/></g><g filter="url(#filter9_i_424_308)"><path d="M500.517 264.905h-4.121v-11.283l.04-1.854.067-2.027c-.685.684-1.16 1.133-1.427 1.347l-2.24 1.8-1.988-2.48 6.282-5.002h3.387v19.499zm12.51-12.457c1.885 0 3.383.529 4.495 1.587 1.12 1.058 1.68 2.507 1.68 4.348 0 2.178-.671 3.854-2.014 5.028-1.342 1.173-3.263 1.76-5.761 1.76-2.17 0-3.921-.351-5.255-1.053v-3.561c.703.373 1.521.68 2.454.92.934.231 1.818.347 2.654.347 2.516 0 3.774-1.032 3.774-3.094 0-1.965-1.302-2.948-3.907-2.948-.471 0-.992.049-1.561.147-.569.089-1.031.187-1.387.293l-1.64-.88.733-9.936h10.576v3.495h-6.961l-.36 3.827.466-.093c.543-.125 1.214-.187 2.014-.187zm9.55 5.516c0 .574.05 1.003.15 1.288.103.28.268.42.494.42.434 0 .651-.569.651-1.708 0-1.129-.217-1.694-.651-1.694-.226 0-.391.14-.494.42-.1.276-.15.7-.15 1.274zm3.003-.013c0 1.039-.201 1.821-.603 2.345-.402.519-.992.779-1.769.779-.746 0-1.322-.266-1.729-.8-.406-.537-.61-1.312-.61-2.324 0-2.065.78-3.098 2.339-3.098.763 0 1.349.269 1.755.807.411.533.617 1.297.617 2.291zm4.663-2.955l-5.497 9.909h-1.626l5.496-9.909h1.627zm-.725 6.926c0 .574.049 1.003.149 1.288.104.28.269.42.495.42.433 0 .65-.569.65-1.708 0-1.129-.217-1.694-.65-1.694-.226 0-.391.14-.495.42-.1.276-.149.701-.149 1.274zm3.002-.013c0 1.035-.201 1.814-.603 2.338-.402.52-.992.78-1.769.78-.745 0-1.322-.267-1.728-.8-.407-.538-.61-1.311-.61-2.318 0-2.065.779-3.098 2.338-3.098.764 0 1.349.269 1.755.807.412.533.617 1.297.617 2.291z" fill="#323030" fill-opacity=".77"/></g><g filter="url(#filter10_i_424_308)"><path d="M490.602 175.422c1.27 0 2.291.29 3.065.87.78.575 1.17 1.352 1.17 2.331 0 .677-.187 1.282-.562 1.814-.375.526-.98.998-1.814 1.415.992.532 1.702 1.088 2.131 1.669.436.574.653 1.206.653 1.895 0 1.089-.426 1.965-1.278 2.63-.853.659-1.975.989-3.365.989-1.451 0-2.591-.308-3.419-.925-.829-.617-1.243-1.491-1.243-2.621 0-.756.2-1.427.599-2.014.405-.586 1.052-1.103 1.941-1.551-.756-.477-1.3-.988-1.633-1.532a3.367 3.367 0 01-.499-1.787c0-.949.393-1.717 1.179-2.304.786-.586 1.811-.879 3.075-.879zm-2.068 9.904c0 .519.181.925.544 1.215.363.29.859.435 1.488.435.695 0 1.215-.148 1.559-.444.345-.303.517-.699.517-1.188 0-.405-.172-.783-.517-1.134-.338-.357-.891-.735-1.659-1.134-1.288.593-1.932 1.343-1.932 2.25zm2.05-7.855c-.478 0-.865.124-1.161.372-.29.242-.436.569-.436.98 0 .362.115.689.345.979.236.284.659.578 1.27.88.592-.278 1.007-.562 1.242-.853.236-.29.354-.625.354-1.006 0-.417-.151-.747-.453-.989-.303-.242-.69-.363-1.161-.363zm6.766 6.663c0 .39.034.682.102.876.07.19.182.285.336.285.295 0 .443-.387.443-1.161 0-.768-.148-1.152-.443-1.152-.154 0-.266.095-.336.285-.068.188-.102.477-.102.867zm2.042-.009c0 .706-.137 1.238-.41 1.594-.274.354-.675.53-1.203.53-.507 0-.899-.181-1.175-.543-.277-.366-.415-.893-.415-1.581 0-1.405.53-2.107 1.59-2.107.519 0 .917.183 1.194.549.279.362.419.882.419 1.558zm3.171-2.01l-3.738 6.739h-1.106l3.738-6.739h1.106zm-.493 4.711c0 .39.034.682.101.875.071.191.183.286.337.286.295 0 .442-.387.442-1.161 0-.769-.147-1.153-.442-1.153-.154 0-.266.096-.337.286-.067.187-.101.476-.101.867zm2.042-.01c0 .704-.137 1.234-.411 1.59-.273.354-.674.53-1.202.53-.507 0-.899-.181-1.176-.543-.276-.366-.415-.891-.415-1.577 0-1.404.53-2.106 1.591-2.106.519 0 .917.183 1.193.548.28.363.42.882.42 1.558z" fill="#323030" fill-opacity=".77"/></g><g filter="url(#filter11_i_424_308)"><path d="M369.491 162.084c.92 0 1.65.259 2.193.775.546.516.819 1.223.819 2.121 0 1.062-.327 1.88-.982 2.453-.655.572-1.592.859-2.811.859-1.058 0-1.913-.172-2.563-.514v-1.738c.342.182.741.332 1.197.449.455.113.887.169 1.295.169 1.227 0 1.841-.503 1.841-1.509 0-.959-.636-1.438-1.906-1.438-.23 0-.484.024-.762.072a5.191 5.191 0 00-.676.143l-.801-.43.358-4.847h5.16v1.705h-3.397l-.175 1.867.228-.045a4.45 4.45 0 01.982-.092zm4.659 2.692c0 .279.024.489.073.628.051.136.131.205.241.205.212 0 .318-.278.318-.833 0-.552-.106-.827-.318-.827-.11 0-.19.068-.241.205-.049.134-.073.342-.073.622zm1.465-.007c0 .507-.098.888-.294 1.144-.197.253-.484.38-.863.38-.364 0-.645-.13-.844-.39-.198-.262-.297-.64-.297-1.134 0-1.007.38-1.511 1.141-1.511.372 0 .658.131.856.393.201.26.301.633.301 1.118zm2.275-1.442l-2.682 4.834h-.793l2.681-4.834h.794zm-.354 3.38c0 .279.024.489.073.628.05.136.131.205.241.205.212 0 .317-.278.317-.833 0-.552-.105-.827-.317-.827-.11 0-.191.068-.241.205-.049.134-.073.342-.073.622zm1.465-.007c0 .505-.098.885-.295 1.141-.196.253-.483.38-.863.38-.363 0-.644-.13-.843-.39-.198-.263-.297-.64-.297-1.131 0-1.007.38-1.511 1.14-1.511.373 0 .658.131.857.393.2.26.301.633.301 1.118z" fill="#323030" fill-opacity=".77"/></g><g filter="url(#filter12_i_424_308)"><path d="M417.761 207.663l4.26-9.312h-5.594v-2.017h8.139v1.505l-4.291 9.824h-2.514zm8.56-4.038c0 .334.029.583.086.749.061.163.157.244.288.244.253 0 .379-.331.379-.993 0-.658-.126-.986-.379-.986-.131 0-.227.081-.288.244-.057.161-.086.408-.086.742zm1.747-.008c0 .604-.117 1.059-.351 1.364-.234.302-.577.454-1.03.454-.433 0-.769-.155-1.005-.466-.237-.313-.355-.763-.355-1.352 0-1.202.453-1.802 1.36-1.802.445 0 .785.156 1.022.469.239.31.359.754.359 1.333zm2.713-1.72l-3.198 5.766h-.947l3.198-5.766h.947zm-.422 4.031c0 .333.029.583.086.749.061.163.157.244.288.244.253 0 .379-.331.379-.993 0-.658-.126-.986-.379-.986-.131 0-.227.081-.288.244-.057.161-.086.408-.086.742zm1.746-.008c0 .602-.116 1.055-.35 1.36-.234.302-.578.454-1.03.454-.433 0-.769-.156-1.005-.466-.237-.313-.355-.762-.355-1.348 0-1.202.453-1.802 1.36-1.802.445 0 .785.156 1.022.469.239.31.358.754.358 1.333z" fill="#323030" fill-opacity=".77"/></g><path opacity=".59" d="M16 122.663v50c0 12.15 9.85 22 22 22h116.5" stroke="#fff"/><circle cx="16" cy="117.663" r="8" fill="#B7B7B7" fill-opacity=".07"/><circle cx="159" cy="194.663" r="24" fill="#F3CB53" fill-opacity=".09"/><circle cx="16" cy="117.663" r="5" fill="#F3CB53"/><circle cx="159" cy="194.663" r="11" fill="#F3CB53"/><circle cx="16" cy="117.663" r="2" fill="#fff"/><circle cx="159" cy="194.663" r="4" fill="#fff"/><defs><filter id="filter0_iii_424_308" x="352.39" y="143.053" width="35.5" height="41.558" filterUnits="userSpaceOnUse" color-interpolation-filters="sRGB"><feFlood flood-opacity="0" result="BackgroundImageFix"/><feBlend in="SourceGraphic" in2="BackgroundImageFix" result="shape"/><feColorMatrix in="SourceAlpha" values="0 0 0 0 0 0 0 0 0 0 0 0 0 0 0 0 0 0 127 0" result="hardAlpha"/><feOffset dx="-.801" dy="7.213"/><feGaussianBlur stdDeviation="10.819"/><feComposite in2="hardAlpha" operator="arithmetic" k2="-1" k3="1"/><feColorMatrix values="0 0 0 0 1 0 0 0 0 1 0 0 0 0 1 0 0 0 0.19 0"/><feBlend in2="shape" result="effect1_innerShadow_424_308"/><feColorMatrix in="SourceAlpha" values="0 0 0 0 0 0 0 0 0 0 0 0 0 0 0 0 0 0 127 0" result="hardAlpha"/><feOffset dx="2.404" dy="2.404"/><feGaussianBlur stdDeviation="3.206"/><feComposite in2="hardAlpha" operator="arithmetic" k2="-1" k3="1"/><feColorMatrix values="0 0 0 0 1 0 0 0 0 1 0 0 0 0 1 0 0 0 0.6 0"/><feBlend in2="effect1_innerShadow_424_308" result="effect2_innerShadow_424_308"/><feColorMatrix in="SourceAlpha" values="0 0 0 0 0 0 0 0 0 0 0 0 0 0 0 0 0 0 127 0" result="hardAlpha"/><feOffset dx="-6.411" dy="-6.411"/><feGaussianBlur stdDeviation="2.805"/><feComposite in2="hardAlpha" operator="arithmetic" k2="-1" k3="1"/><feColorMatrix values="0 0 0 0 0 0 0 0 0 0 0 0 0 0 0 0 0 0 0.08 0"/><feBlend in2="effect2_innerShadow_424_308" result="effect3_innerShadow_424_308"/></filter><filter id="filter1_iiii_424_308" x="446.58" y="190.003" width="106.371" height="118.37" filterUnits="userSpaceOnUse" color-interpolation-filters="sRGB"><feFlood flood-opacity="0" result="BackgroundImageFix"/><feBlend in="SourceGraphic" in2="BackgroundImageFix" result="shape"/><feColorMatrix in="SourceAlpha" values="0 0 0 0 0 0 0 0 0 0 0 0 0 0 0 0 0 0 127 0" result="hardAlpha"/><feOffset dx="-2" dy="18"/><feGaussianBlur stdDeviation="27"/><feComposite in2="hardAlpha" operator="arithmetic" k2="-1" k3="1"/><feColorMatrix values="0 0 0 0 1 0 0 0 0 1 0 0 0 0 1 0 0 0 0.19 0"/><feBlend in2="shape" result="effect1_innerShadow_424_308"/><feColorMatrix in="SourceAlpha" values="0 0 0 0 0 0 0 0 0 0 0 0 0 0 0 0 0 0 127 0" result="hardAlpha"/><feOffset dx="6" dy="6"/><feGaussianBlur stdDeviation="8"/><feComposite in2="hardAlpha" operator="arithmetic" k2="-1" k3="1"/><feColorMatrix values="0 0 0 0 1 0 0 0 0 1 0 0 0 0 1 0 0 0 0.6 0"/><feBlend in2="effect1_innerShadow_424_308" result="effect2_innerShadow_424_308"/><feColorMatrix in="SourceAlpha" values="0 0 0 0 0 0 0 0 0 0 0 0 0 0 0 0 0 0 127 0" result="hardAlpha"/><feOffset dx="-28" dy="-28"/><feGaussianBlur stdDeviation="27"/><feComposite in2="hardAlpha" operator="arithmetic" k2="-1" k3="1"/><feColorMatrix values="0 0 0 0 0 0 0 0 0 0 0 0 0 0 0 0 0 0 0.24 0"/><feBlend in2="effect2_innerShadow_424_308" result="effect3_innerShadow_424_308"/><feColorMatrix in="SourceAlpha" values="0 0 0 0 0 0 0 0 0 0 0 0 0 0 0 0 0 0 127 0" result="hardAlpha"/><feOffset dx="-16" dy="-16"/><feGaussianBlur stdDeviation="7"/><feComposite in2="hardAlpha" operator="arithmetic" k2="-1" k3="1"/><feColorMatrix values="0 0 0 0 0 0 0 0 0 0 0 0 0 0 0 0 0 0 0.2 0"/><feBlend in2="effect3_innerShadow_424_308" result="effect4_innerShadow_424_308"/></filter><filter id="filter2_iiii_424_308" x="395.438" y="173.1" width="47.723" height="53.107" filterUnits="userSpaceOnUse" color-interpolation-filters="sRGB"><feFlood flood-opacity="0" result="BackgroundImageFix"/><feBlend in="SourceGraphic" in2="BackgroundImageFix" result="shape"/><feColorMatrix in="SourceAlpha" values="0 0 0 0 0 0 0 0 0 0 0 0 0 0 0 0 0 0 127 0" result="hardAlpha"/><feOffset dx="-.897" dy="8.076"/><feGaussianBlur stdDeviation="12.114"/><feComposite in2="hardAlpha" operator="arithmetic" k2="-1" k3="1"/><feColorMatrix values="0 0 0 0 1 0 0 0 0 1 0 0 0 0 1 0 0 0 0.19 0"/><feBlend in2="shape" result="effect1_innerShadow_424_308"/><feColorMatrix in="SourceAlpha" values="0 0 0 0 0 0 0 0 0 0 0 0 0 0 0 0 0 0 127 0" result="hardAlpha"/><feOffset dx="2.692" dy="2.692"/><feGaussianBlur stdDeviation="3.589"/><feComposite in2="hardAlpha" operator="arithmetic" k2="-1" k3="1"/><feColorMatrix values="0 0 0 0 1 0 0 0 0 1 0 0 0 0 1 0 0 0 0.6 0"/><feBlend in2="effect1_innerShadow_424_308" result="effect2_innerShadow_424_308"/><feColorMatrix in="SourceAlpha" values="0 0 0 0 0 0 0 0 0 0 0 0 0 0 0 0 0 0 127 0" result="hardAlpha"/><feOffset dx="-12.562" dy="-12.562"/><feGaussianBlur stdDeviation="12.114"/><feComposite in2="hardAlpha" operator="arithmetic" k2="-1" k3="1"/><feColorMatrix values="0 0 0 0 0 0 0 0 0 0 0 0 0 0 0 0 0 0 0.24 0"/><feBlend in2="effect2_innerShadow_424_308" result="effect3_innerShadow_424_308"/><feColorMatrix in="SourceAlpha" values="0 0 0 0 0 0 0 0 0 0 0 0 0 0 0 0 0 0 127 0" result="hardAlpha"/><feOffset dx="-7.178" dy="-7.178"/><feGaussianBlur stdDeviation="3.141"/><feComposite in2="hardAlpha" operator="arithmetic" k2="-1" k3="1"/><feColorMatrix values="0 0 0 0 0 0 0 0 0 0 0 0 0 0 0 0 0 0 0.2 0"/><feBlend in2="effect3_innerShadow_424_308" result="effect4_innerShadow_424_308"/></filter><filter id="filter3_iiii_424_308" x="462.018" y="150.099" width="53.568" height="58.952" filterUnits="userSpaceOnUse" color-interpolation-filters="sRGB"><feFlood flood-opacity="0" result="BackgroundImageFix"/><feBlend in="SourceGraphic" in2="BackgroundImageFix" result="shape"/><feColorMatrix in="SourceAlpha" values="0 0 0 0 0 0 0 0 0 0 0 0 0 0 0 0 0 0 127 0" result="hardAlpha"/><feOffset dx="-.897" dy="8.076"/><feGaussianBlur stdDeviation="12.114"/><feComposite in2="hardAlpha" operator="arithmetic" k2="-1" k3="1"/><feColorMatrix values="0 0 0 0 1 0 0 0 0 1 0 0 0 0 1 0 0 0 0.19 0"/><feBlend in2="shape" result="effect1_innerShadow_424_308"/><feColorMatrix in="SourceAlpha" values="0 0 0 0 0 0 0 0 0 0 0 0 0 0 0 0 0 0 127 0" result="hardAlpha"/><feOffset dx="2.692" dy="2.692"/><feGaussianBlur stdDeviation="3.589"/><feComposite in2="hardAlpha" operator="arithmetic" k2="-1" k3="1"/><feColorMatrix values="0 0 0 0 1 0 0 0 0 1 0 0 0 0 1 0 0 0 0.6 0"/><feBlend in2="effect1_innerShadow_424_308" result="effect2_innerShadow_424_308"/><feColorMatrix in="SourceAlpha" values="0 0 0 0 0 0 0 0 0 0 0 0 0 0 0 0 0 0 127 0" result="hardAlpha"/><feOffset dx="-12.562" dy="-12.562"/><feGaussianBlur stdDeviation="12.114"/><feComposite in2="hardAlpha" operator="arithmetic" k2="-1" k3="1"/><feColorMatrix values="0 0 0 0 0 0 0 0 0 0 0 0 0 0 0 0 0 0 0.14 0"/><feBlend in2="effect2_innerShadow_424_308" result="effect3_innerShadow_424_308"/><feColorMatrix in="SourceAlpha" values="0 0 0 0 0 0 0 0 0 0 0 0 0 0 0 0 0 0 127 0" result="hardAlpha"/><feOffset dx="-7.178" dy="-7.178"/><feGaussianBlur stdDeviation="3.141"/><feComposite in2="hardAlpha" operator="arithmetic" k2="-1" k3="1"/><feColorMatrix values="0 0 0 0 0 0 0 0 0 0 0 0 0 0 0 0 0 0 0.08 0"/><feBlend in2="effect3_innerShadow_424_308" result="effect4_innerShadow_424_308"/></filter><filter id="filter4_iiii_424_308" x="148.584" y="190.003" width="344.418" height="344.418" filterUnits="userSpaceOnUse" color-interpolation-filters="sRGB"><feFlood flood-opacity="0" result="BackgroundImageFix"/><feBlend in="SourceGraphic" in2="BackgroundImageFix" result="shape"/><feColorMatrix in="SourceAlpha" values="0 0 0 0 0 0 0 0 0 0 0 0 0 0 0 0 0 0 127 0" result="hardAlpha"/><feOffset dx="28" dy="28"/><feGaussianBlur stdDeviation="27"/><feComposite in2="hardAlpha" operator="arithmetic" k2="-1" k3="1"/><feColorMatrix values="0 0 0 0 1 0 0 0 0 1 0 0 0 0 1 0 0 0 0.4 0"/><feBlend in2="shape" result="effect1_innerShadow_424_308"/><feColorMatrix in="SourceAlpha" values="0 0 0 0 0 0 0 0 0 0 0 0 0 0 0 0 0 0 127 0" result="hardAlpha"/><feOffset dx="6" dy="6"/><feGaussianBlur stdDeviation="8"/><feComposite in2="hardAlpha" operator="arithmetic" k2="-1" k3="1"/><feColorMatrix values="0 0 0 0 1 0 0 0 0 1 0 0 0 0 1 0 0 0 0.47 0"/><feBlend in2="effect1_innerShadow_424_308" result="effect2_innerShadow_424_308"/><feColorMatrix in="SourceAlpha" values="0 0 0 0 0 0 0 0 0 0 0 0 0 0 0 0 0 0 127 0" result="hardAlpha"/><feOffset dx="-28" dy="-28"/><feGaussianBlur stdDeviation="27"/><feComposite in2="hardAlpha" operator="arithmetic" k2="-1" k3="1"/><feColorMatrix values="0 0 0 0 0 0 0 0 0 0 0 0 0 0 0 0 0 0 0.24 0"/><feBlend in2="effect2_innerShadow_424_308" result="effect3_innerShadow_424_308"/><feColorMatrix in="SourceAlpha" values="0 0 0 0 0 0 0 0 0 0 0 0 0 0 0 0 0 0 127 0" result="hardAlpha"/><feOffset dx="-16" dy="-16"/><feGaussianBlur stdDeviation="8"/><feComposite in2="hardAlpha" operator="arithmetic" k2="-1" k3="1"/><feColorMatrix values="0 0 0 0 0 0 0 0 0 0 0 0 0 0 0 0 0 0 0.13 0"/><feBlend in2="effect3_innerShadow_424_308" result="effect4_innerShadow_424_308"/></filter><filter id="filter5_iiii_424_308" x="172" y="52.663" width="176.263" height="176.263" filterUnits="userSpaceOnUse" color-interpolation-filters="sRGB"><feFlood flood-opacity="0" result="BackgroundImageFix"/><feBlend in="SourceGraphic" in2="BackgroundImageFix" result="shape"/><feColorMatrix in="SourceAlpha" values="0 0 0 0 0 0 0 0 0 0 0 0 0 0 0 0 0 0 127 0" result="hardAlpha"/><feOffset dx="28" dy="28"/><feGaussianBlur stdDeviation="27"/><feComposite in2="hardAlpha" operator="arithmetic" k2="-1" k3="1"/><feColorMatrix values="0 0 0 0 1 0 0 0 0 1 0 0 0 0 1 0 0 0 0.6 0"/><feBlend in2="shape" result="effect1_innerShadow_424_308"/><feColorMatrix in="SourceAlpha" values="0 0 0 0 0 0 0 0 0 0 0 0 0 0 0 0 0 0 127 0" result="hardAlpha"/><feOffset dx="6" dy="6"/><feGaussianBlur stdDeviation="8"/><feComposite in2="hardAlpha" operator="arithmetic" k2="-1" k3="1"/><feColorMatrix values="0 0 0 0 1 0 0 0 0 1 0 0 0 0 1 0 0 0 0.85 0"/><feBlend in2="effect1_innerShadow_424_308" result="effect2_innerShadow_424_308"/><feColorMatrix in="SourceAlpha" values="0 0 0 0 0 0 0 0 0 0 0 0 0 0 0 0 0 0 127 0" result="hardAlpha"/><feOffset dx="-28" dy="-28"/><feGaussianBlur stdDeviation="18"/><feComposite in2="hardAlpha" operator="arithmetic" k2="-1" k3="1"/><feColorMatrix values="0 0 0 0 0 0 0 0 0 0 0 0 0 0 0 0 0 0 0.07 0"/><feBlend in2="effect2_innerShadow_424_308" result="effect3_innerShadow_424_308"/><feColorMatrix in="SourceAlpha" values="0 0 0 0 0 0 0 0 0 0 0 0 0 0 0 0 0 0 127 0" result="hardAlpha"/><feOffset dx="-5" dy="-5"/><feGaussianBlur stdDeviation="5"/><feComposite in2="hardAlpha" operator="arithmetic" k2="-1" k3="1"/><feColorMatrix values="0 0 0 0 0 0 0 0 0 0 0 0 0 0 0 0 0 0 0.09 0"/><feBlend in2="effect3_innerShadow_424_308" result="effect4_innerShadow_424_308"/></filter><filter id="filter6_d_424_308" x="246.6" y="324.768" width="154.791" height="76.809" filterUnits="userSpaceOnUse" color-interpolation-filters="sRGB"><feFlood flood-opacity="0" result="BackgroundImageFix"/><feColorMatrix in="SourceAlpha" values="0 0 0 0 0 0 0 0 0 0 0 0 0 0 0 0 0 0 127 0" result="hardAlpha"/><feOffset dx="3" dy="1"/><feGaussianBlur stdDeviation="2"/><feComposite in2="hardAlpha" operator="out"/><feColorMatrix values="0 0 0 0 0 0 0 0 0 0 0 0 0 0 0 0 0 0 0.17 0"/><feBlend in2="BackgroundImageFix" result="effect1_dropShadow_424_308"/><feBlend in="SourceGraphic" in2="effect1_dropShadow_424_308" result="shape"/></filter><filter id="filter7_i_424_308" x="247.6" y="327.768" width="149.791" height="69.809" filterUnits="userSpaceOnUse" color-interpolation-filters="sRGB"><feFlood flood-opacity="0" result="BackgroundImageFix"/><feBlend in="SourceGraphic" in2="BackgroundImageFix" result="shape"/><feColorMatrix in="SourceAlpha" values="0 0 0 0 0 0 0 0 0 0 0 0 0 0 0 0 0 0 127 0" result="hardAlpha"/><feOffset dx="3" dy="1"/><feGaussianBlur stdDeviation="2"/><feComposite in2="hardAlpha" operator="arithmetic" k2="-1" k3="1"/><feColorMatrix values="0 0 0 0 0 0 0 0 0 0 0 0 0 0 0 0 0 0 0.3 0"/><feBlend in2="shape" result="effect1_innerShadow_424_308"/></filter><filter id="filter8_i_424_308" x="233.26" y="129.213" width="57.068" height="26.655" filterUnits="userSpaceOnUse" color-interpolation-filters="sRGB"><feFlood flood-opacity="0" result="BackgroundImageFix"/><feBlend in="SourceGraphic" in2="BackgroundImageFix" result="shape"/><feColorMatrix in="SourceAlpha" values="0 0 0 0 0 0 0 0 0 0 0 0 0 0 0 0 0 0 127 0" result="hardAlpha"/><feOffset dx="3" dy="1"/><feGaussianBlur stdDeviation="2"/><feComposite in2="hardAlpha" operator="arithmetic" k2="-1" k3="1"/><feColorMatrix values="0 0 0 0 0 0 0 0 0 0 0 0 0 0 0 0 0 0 0.3 0"/><feBlend in2="shape" result="effect1_innerShadow_424_308"/></filter><filter id="filter9_i_424_308" x="490.848" y="245.406" width="44.672" height="20.765" filterUnits="userSpaceOnUse" color-interpolation-filters="sRGB"><feFlood flood-opacity="0" result="BackgroundImageFix"/><feBlend in="SourceGraphic" in2="BackgroundImageFix" result="shape"/><feColorMatrix in="SourceAlpha" values="0 0 0 0 0 0 0 0 0 0 0 0 0 0 0 0 0 0 127 0" result="hardAlpha"/><feOffset dx="3" dy="1"/><feGaussianBlur stdDeviation="2"/><feComposite in2="hardAlpha" operator="arithmetic" k2="-1" k3="1"/><feColorMatrix values="0 0 0 0 0 0 0 0 0 0 0 0 0 0 0 0 0 0 0.3 0"/><feBlend in2="shape" result="effect1_innerShadow_424_308"/></filter><filter id="filter10_i_424_308" x="485.94" y="175.422" width="21.172" height="14.613" filterUnits="userSpaceOnUse" color-interpolation-filters="sRGB"><feFlood flood-opacity="0" result="BackgroundImageFix"/><feBlend in="SourceGraphic" in2="BackgroundImageFix" result="shape"/><feColorMatrix in="SourceAlpha" values="0 0 0 0 0 0 0 0 0 0 0 0 0 0 0 0 0 0 127 0" result="hardAlpha"/><feOffset dx="3" dy="1"/><feGaussianBlur stdDeviation="2"/><feComposite in2="hardAlpha" operator="arithmetic" k2="-1" k3="1"/><feColorMatrix values="0 0 0 0 0 0 0 0 0 0 0 0 0 0 0 0 0 0 0.3 0"/><feBlend in2="shape" result="effect1_innerShadow_424_308"/></filter><filter id="filter11_i_424_308" x="366.147" y="158.649" width="15.854" height="10.643" filterUnits="userSpaceOnUse" color-interpolation-filters="sRGB"><feFlood flood-opacity="0" result="BackgroundImageFix"/><feBlend in="SourceGraphic" in2="BackgroundImageFix" result="shape"/><feColorMatrix in="SourceAlpha" values="0 0 0 0 0 0 0 0 0 0 0 0 0 0 0 0 0 0 127 0" result="hardAlpha"/><feOffset dx="3" dy="1"/><feGaussianBlur stdDeviation="2"/><feComposite in2="hardAlpha" operator="arithmetic" k2="-1" k3="1"/><feColorMatrix values="0 0 0 0 0 0 0 0 0 0 0 0 0 0 0 0 0 0 0.3 0"/><feBlend in2="shape" result="effect1_innerShadow_424_308"/></filter><filter id="filter12_i_424_308" x="416.427" y="196.334" width="18.679" height="12.4" filterUnits="userSpaceOnUse" color-interpolation-filters="sRGB"><feFlood flood-opacity="0" result="BackgroundImageFix"/><feBlend in="SourceGraphic" in2="BackgroundImageFix" result="shape"/><feColorMatrix in="SourceAlpha" values="0 0 0 0 0 0 0 0 0 0 0 0 0 0 0 0 0 0 127 0" result="hardAlpha"/><feOffset dx="3" dy="1"/><feGaussianBlur stdDeviation="2"/><feComposite in2="hardAlpha" operator="arithmetic" k2="-1" k3="1"/><feColorMatrix values="0 0 0 0 0 0 0 0 0 0 0 0 0 0 0 0 0 0 0.3 0"/><feBlend in2="shape" result="effect1_innerShadow_424_308"/></filter><linearGradient id="paint0_linear_424_308" x1="359.699" y1="155.241" x2="382.696" y2="169.326" gradientUnits="userSpaceOnUse"><stop stop-color="#EB5757"/><stop offset="1" stop-color="#DB2727"/></linearGradient><linearGradient id="paint1_linear_424_308" x1="359.699" y1="155.241" x2="382.696" y2="169.326" gradientUnits="userSpaceOnUse"><stop stop-color="#9B51E0"/><stop offset="1" stop-color="#9B51E0"/></linearGradient><linearGradient id="paint2_linear_424_308" x1="371.743" y1="148.663" x2="371.743" y2="177.398" gradientUnits="userSpaceOnUse"><stop stop-color="#56CCF2"/><stop offset="1" stop-color="#37B0D7"/></linearGradient><linearGradient id="paint3_linear_424_308" x1="479.053" y1="234.571" x2="538.108" y2="272.382" gradientUnits="userSpaceOnUse"><stop stop-color="#EB5757"/><stop offset="1" stop-color="#DB2727"/></linearGradient><linearGradient id="paint4_linear_424_308" x1="410.007" y1="193.096" x2="436.501" y2="210.06" gradientUnits="userSpaceOnUse"><stop stop-color="#EB5757"/><stop offset="1" stop-color="#DB2727"/></linearGradient><linearGradient id="paint5_linear_424_308" x1="410.007" y1="193.096" x2="436.501" y2="210.06" gradientUnits="userSpaceOnUse"><stop stop-color="#9B51E0"/><stop offset="1" stop-color="#9B51E0"/></linearGradient><linearGradient id="paint6_linear_424_308" x1="476.948" y1="171.432" x2="508.213" y2="191.45" gradientUnits="userSpaceOnUse"><stop stop-color="#EB5757"/><stop offset="1" stop-color="#DB2727"/></linearGradient><linearGradient id="paint7_linear_424_308" x1="476.948" y1="171.432" x2="508.213" y2="191.45" gradientUnits="userSpaceOnUse"><stop stop-color="#6FCF97"/><stop offset="1" stop-color="#5AB47F"/></linearGradient><linearGradient id="paint8_linear_424_308" x1="194.408" y1="284.031" x2="429.76" y2="434.721" gradientUnits="userSpaceOnUse"><stop stop-color="#FEC400"/><stop offset="1" stop-color="#D2A304"/></linearGradient><linearGradient id="paint9_linear_424_308" x1="207.432" y1="108.195" x2="305.568" y2="171.029" gradientUnits="userSpaceOnUse"><stop stop-color="#fff"/><stop offset="1" stop-color="#F3F2EF"/></linearGradient></defs></svg>