<svg width="183" height="177" fill="none" xmlns="http://www.w3.org/2000/svg"><path opacity=".59" d="M16 80.663v50c0 12.15 9.85 22 22 22h116.5" stroke="#fff"/><circle cx="16" cy="75.663" r="8" fill="#B7B7B7" fill-opacity=".07"/><circle cx="159" cy="152.663" r="24" fill="#F3CB53" fill-opacity=".09"/><circle cx="16" cy="75.663" r="5" fill="#F3CB53"/><circle cx="159" cy="152.663" r="11" fill="#F3CB53"/><circle cx="16" cy="75.663" r="2" fill="#fff"/><circle cx="159" cy="152.663" r="4" fill="#fff"/><path d="M18.036.663A18.02 18.02 0 0132.19 7.518a17.848 17.848 0 00-16.128-.158c-4.274 2.134-8.226 6.263-8.226 11.307 0 1.821.489 3.609 1.416 5.177a10.194 10.194 0 003.854 3.74 10.214 10.214 0 0010.365-.298 10.174 10.174 0 003.039-14.291 10.196 10.196 0 00-4.063-3.513c7.404-.793 14.675 3.673 13.409 11.934a17.917 17.917 0 01-3.725 8.476l-.17.21-.037.044-.033.038-.148.176a18.095 18.095 0 01-3.558 3.183 18.086 18.086 0 01-9.497 3.108h-.036c-.203 0-.407.012-.612.012a18.11 18.11 0 01-4.071-.463l-.367-.089-.185-.048-.21-.056-.211-.061-.179-.052-.219-.07-.165-.051-.243-.082-.08-.028-.322-.102-.367-.14-.366-.149-.339-.146-.028-.013-.302-.139-.077-.034-.24-.117a18.018 18.018 0 01-8.334-8.448A17.982 17.982 0 01.47 14.584a18.003 18.003 0 016.352-10.02 18.049 18.049 0 0111.214-3.9zm12.614 40.5c2.403 0 4.41 2.036 3.363 4.198-.096.197-.198.392-.307.585-.854 1.517-2.107 2.895-3.685 4.055-1.579 1.161-3.453 2.082-5.515 2.71a22.418 22.418 0 01-6.506.952c-2.232 0-4.443-.324-6.506-.952-2.062-.628-3.936-1.549-5.515-2.71-1.578-1.16-2.83-2.538-3.685-4.055a10.762 10.762 0 01-.307-.585c-1.048-2.162.96-4.198 3.363-4.198h1.903c1.351 0 2.415 1.158 3.079 2.335.417.74 1.028 1.413 1.799 1.98a8.95 8.95 0 002.693 1.323c1.007.307 2.086.465 3.176.465 1.09 0 2.17-.158 3.176-.465a8.95 8.95 0 002.693-1.323c.77-.567 1.382-1.24 1.8-1.98.663-1.177 1.727-2.335 3.078-2.335h1.903z" fill="#fff"/></svg>