<svg width="722" height="727" fill="none" xmlns="http://www.w3.org/2000/svg"><path d="M215.283 154.137c-27.639-30.104-102.026-21.004-63.014 45.256 6.396 10.864 14.451 30.74 22.022 55.814 6.935 22.968-24.296 49.356-24.017 82.461.437 51.917 77.692 57.741 76.719 85.508-1.274 36.366-37.354 66.163-53.55 92.175-15.247 24.487-18.858 55.55-13.726 83.996 9.004 49.906 44.913 91.759 92.097 75.929 23.619-7.924 50.064-30.303 77.373-73.364 12.209-19.252 23.26-35.508 33.407-49.131 26.116-35.062 36.816 19.278 78.654 4.916 23.839-8.184 31.041-61.582 58.766-45.554 19.714 11.396 42.768 25.566 72.514 37.749 52.238 21.395 101.731 8.052 87.964-46.468-6.499-25.737-27.094-60.649-68.152-105.415-26.275-28.647 6.418-40.171-6.939-84.897-13.356-44.725-51.588-52.697-36.675-79.273l.299-.532c11.367-20.256 23.491-41.859 22.218-73.662-1.096-27.395-11.309-50.927-26.141-66.253-15.874-16.402-37.039-23.405-57.981-15.687-21.014 7.745-41.803 30.311-56.8 73.076-9.888 28.195-41.501-15.86-72.102 1.993-30.601 17.853-16.507 66.835-41.422 60.846-43.279-10.404-69.143-24.227-101.514-59.483z" stroke="#fff" stroke-width="3"/><path d="M357.452 321.738c-4.225-4.629-13.334.617-11.494 6.714 2.095 6.942 8.949 14.361 11.215 21.254 4.375 13.309 1.24 18.826-5.206 29.294-2.312 3.747-2.848 8.509-2.053 12.873 1.394 7.657 6.885 14.09 14.067 11.685 3.595-1.205 7.614-4.624 11.755-11.215 1.852-2.946 3.528-5.434 5.068-7.518 6.528-9.519 16.666-8.079 20.92-6.169 3.009 1.756 6.528 3.94 11.065 5.821 7.969 3.305 16.414-.872 13.382-7.085-4.285-8.777-33.088-36.484-19.239-48.76 6.432-5.703 3.738-11.809 1.471-14.166-2.426-2.522-5.654-3.605-8.841-2.431-3.199 1.178-6.399 8.445-8.621 11.179-8.204 10.094-16.403 16.874-33.489-1.476z" stroke="#fff" stroke-width="3"/><path d="M169.65 210.4c-35.261-60.42 32.725-68.716 58.064-41.119 31.001 33.73 55.279 45.692 95.405 54.242 22.771 5.325 10.072-39.466 38.05-55.918 27.978-16.452 56.887 23.439 66.029-2.268 13.936-39.016 33.146-59.45 52.485-66.27 19.158-6.917 38.527-.355 52.983 14.797 13.508 14.173 22.715 35.849 23.418 61.032-.093 30.302-8.719 52.543-18.753 71.904-13.432 24.461 21.23 31.947 33.134 72.767 11.903 40.82-18.216 51.326 5.329 77.242 36.944 40.559 55.363 72.127 61.003 95.384 12.332 49.518-33.027 61.585-80.909 42.174-27.418-11.029-48.772-23.737-67.007-33.675-25.367-14.393-32.073 34.415-53.933 42.127-38.256 13.366-48.177-35.847-72.119-3.78-9.412 12.56-19.64 27.456-30.914 45.027-25.501 39.397-50.06 59.179-71.676 65.698-42.966 14.206-75.644-24.078-83.804-69.683-4.639-26.08-1.289-54.534 12.69-76.983 15.326-24.614 48.44-52.223 49.206-86.512.783-25.574-69.714-31.194-70.315-78.753-.458-30.442 27.757-54.775 21.352-75.986-6.971-23.087-14.133-41.427-19.718-51.447z" stroke="#fff" stroke-width="3"/><path d="M187.137 220.708c-31.41-54.375 30.063-61.883 53.041-36.893 29.555 32.078 52.2 42.127 89.1 48.775 20.584 4.63 9.329-35.826 34.647-50.844 25.318-15.019 51.449 20.569 59.846-2.577 12.876-35.157 30.484-53.41 48.121-59.296 17.344-6.107 34.88-.018 47.884 13.828 12.153 12.967 20.323 32.717 20.618 55.611-1.491 28.428-6.395 51.139-15.005 69.398-11.944 22.278 19.084 29.236 29.489 66.019 10.404 36.783-17.096 46.258 3.662 69.349 32.743 36.208 48.935 64.324 53.692 85.029 10.845 44.358-30.31 55.14-73.743 37.802-25.035-9.825-44.646-21.02-61.365-29.458-22.955-12.699-29.186 31.375-49.033 38.606-34.618 12.353-43.712-31.578-65.46-2.589-8.669 11.465-18.067 24.961-28.395 40.805-23.675 35.63-46.318 52.771-65.896 57.88-38.685 12.566-68.051-22.013-75.327-63.172-4.121-23.632-1.018-49.393 11.683-69.744 14.444-23.149 44.554-48.508 44.832-80.613.609-23.303-63.007-28.658-63.741-71.713-.616-27.686 24.548-49.907 18.7-69.291-6.345-21.027-12.591-37.77-17.35-46.912z" stroke="#fff" stroke-width="3"/><path d="M205.171 232.867c-27.657-48.536 27.41-55.238 48.087-32.754 28.185 30.55 49.246 38.738 82.993 43.533 18.438 3.967 8.579-32.298 31.272-45.915 22.693-13.618 46.119 17.806 53.77-2.851 11.814-31.407 27.841-47.528 43.802-52.489 15.558-5.304 31.298.344 42.883 12.939 10.828 11.814 17.991 29.709 17.893 50.391-2.872 26.648-4.049 49.896-11.238 67.105-10.462 20.161 16.994 26.635 25.945 59.513 8.952 32.878-15.974 41.335 2.052 61.694 28.628 32.002 42.643 56.774 46.54 75.001 9.41 39.355-27.608 48.858-66.683 33.505-22.706-8.672-40.618-18.405-55.857-25.384-20.596-11.066-26.33 28.418-44.197 35.178-31.034 11.356-39.349-27.448-58.922-1.455-7.934 10.402-16.509 22.537-25.899 36.7-21.867 31.966-42.622 46.51-60.194 50.212-34.465 10.942-60.597-20.069-67.031-56.927-3.629-21.266-.786-44.417 10.645-62.73 13.574-21.751 40.718-44.922 40.487-74.947.419-21.11-56.436-26.262-57.336-64.958-.795-25.025 21.35-45.189 16.033-62.814-5.745-19.041-11.098-34.249-15.045-42.547z" stroke="#fff" stroke-width="3"/><path d="M223.052 243.676c-23.889-42.699 24.683-48.561 43.041-28.576 26.791 29.035 46.241 35.37 76.785 38.331 16.267 3.312 7.797-28.758 27.822-40.957 20.025-12.2 40.728 15.065 47.609-3.093 10.715-27.641 25.126-41.616 39.384-45.64 13.746-4.491 27.668.725 37.824 12.074 9.494 10.664 15.649 26.703 15.171 45.168-4.232 24.861-1.663 48.644-7.41 64.797-8.952 18.033 14.894 24.038 22.397 53.007 7.504 28.969-14.803 36.39.475 54.023 24.486 27.804 36.317 49.232 39.359 64.977 7.985 34.348-24.834 42.548-59.5 29.16-20.348-7.53-36.539-15.81-50.279-21.337-18.211-9.44-23.417 25.44-39.271 31.716-27.395 10.338-34.943-23.332-52.294-.355-7.181 9.333-14.912 20.098-23.342 32.57-20.005 28.281-38.833 40.209-54.371 42.492-30.185 9.294-53.061-18.156-58.666-50.707-3.142-18.896-.578-39.431 9.556-55.693 12.668-20.341 36.789-41.302 36.031-69.243.216-18.911-49.793-23.894-50.88-58.222-.989-22.356 18.09-40.446 13.302-56.312-5.147-17.054-9.609-30.725-12.743-38.18z" stroke="#fff" stroke-width="3"/><path d="M241.216 255.215c-20.083-36.762 21.983-41.808 38-24.376 25.365 27.443 43.191 31.901 70.518 32.998 14.087 2.639 7.032-25.167 24.392-35.939 17.36-10.773 35.313 12.264 41.436-3.364 9.632-23.831 22.433-35.643 34.987-38.733 11.931-3.679 24.027 1.083 32.743 11.156 8.149 9.487 13.284 23.634 12.412 39.846-5.606 23.027.686 47.297-3.63 62.366-7.452 15.878 12.771 21.384 18.803 46.382 6.032 24.998-13.654 31.386-1.142 46.246 20.318 23.534 29.945 41.567 32.12 54.798 6.53 29.267-22.085 36.173-52.321 24.802-17.975-6.359-32.433-13.156-44.665-17.21-15.813-7.783-20.514 22.428-34.356 28.221-23.755 9.319-30.505-19.147-45.647.784-6.432 8.25-13.324 17.631-20.801 28.394-18.158 24.555-35.061 33.859-48.561 34.732-25.902 7.649-45.496-16.169-50.244-44.345-2.642-16.488-.341-34.368 8.503-48.556 11.774-18.899 32.879-37.627 31.615-63.428.027-16.677-43.117-21.443-44.364-51.334-1.165-19.644 14.857-35.64 10.61-49.712-4.535-15.029-8.094-27.134-10.408-33.728z" stroke="#fff" stroke-width="3"/><path d="M258.582 266.228c-16.325-30.918 19.325-35.156 33.038-20.231 23.997 25.923 40.237 28.515 64.407 27.757 11.938 1.975 6.279-21.638 21.009-31.007s29.976 9.5 35.35-3.636c8.567-20.077 19.784-29.754 30.66-31.916 10.142-2.875 20.439 1.447 27.734 10.27 6.822 8.333 10.949 20.625 9.685 34.623-6.989 21.249 3.042 46.066.15 60.087-5.966 13.759 10.679 18.784 15.256 39.873 4.578 21.089-12.529 26.457-2.753 38.583 16.195 19.324 23.642 34.01 24.956 44.759 5.095 24.26-19.377 29.885-45.248 20.497-15.643-5.204-28.4-10.539-39.15-13.132-13.45-6.148-17.652 19.469-29.51 24.79-20.164 8.321-26.137-15.012-39.099 1.919-5.695 7.186-11.763 15.205-18.3 24.285-16.345 20.887-31.358 27.587-42.849 27.049-21.675 6.021-38.031-14.227-41.937-38.098-2.149-14.12-.11-29.39 7.462-41.537 10.901-17.501 29.033-34.04 27.257-57.765-.164-14.482-36.536-19.049-37.95-44.578-1.346-16.981 11.649-30.918 7.934-43.232-3.936-13.042-6.6-23.611-8.102-29.36z" stroke="#fff" stroke-width="3"/><path d="M276.445 277.043c-12.557-25.072 16.591-28.468 27.982-16.044 22.599 24.42 37.217 25.159 58.171 22.563 9.763 1.32 5.493-18.093 17.551-26.042 12.057-7.95 24.575 6.754 29.178-3.879 7.465-16.307 17.063-23.833 26.235-25.055 8.327-2.06 16.805 1.83 22.672 9.405 5.488 7.184 8.608 17.618 6.966 29.396-8.335 19.456 5.439 44.834 3.991 57.803-4.454 11.631 8.579 16.185 11.71 33.359 3.13 17.174-11.354 21.504-4.327 30.896 12.053 15.118 17.314 26.453 17.773 34.714 3.667 19.245-16.599 23.564-38.055 16.143-13.279-4.062-24.309-7.942-33.555-9.081-11.06-4.52-14.732 16.487-24.573 21.324-16.52 7.303-21.72-10.891-32.457 3.022a773.761 773.761 0 00-15.736 20.148c-14.477 17.195-27.56 21.272-37.018 19.311-17.392 4.37-30.491-12.313-33.566-31.872-1.664-11.748.095-24.398 6.367-34.493 9.986-16.089 25.088-30.417 22.781-52.062-.368-12.282-29.888-16.681-31.489-37.839-1.54-14.311 8.387-26.174 5.201-36.728-3.338-11.054-5.113-20.084-5.802-24.989z" stroke="#fff" stroke-width="3"/><path d="M293.976 287.988c-8.794-19.215 13.993-21.826 23.091-11.919 21.271 22.902 34.337 21.755 52.18 17.271 7.631.645 4.769-14.569 14.225-21.128 9.457-6.559 19.277 3.961 23.151-4.184 6.431-12.557 14.471-17.954 21.985-18.251 6.555-1.261 13.246 2.184 17.696 8.506 4.165 6.027 6.272 14.605 4.221 24.172-9.767 17.699 7.786 43.647 7.755 55.58-2.983 9.518 6.488 13.582 8.15 26.844 1.663 13.261-10.275 16.582-5.986 23.23 7.932 10.892 11.007 18.869 10.595 24.644 2.218 14.229-13.947 17.282-31.073 11.866-10.97-2.896-20.319-5.3-28.102-4.963-8.714-2.872-11.913 13.543-19.793 17.921-12.966 6.322-17.384-6.728-25.973 4.195l-.243.292c-4.145 4.968-8.479 10.163-13.043 15.761-12.714 13.54-23.939 15.014-31.404 11.64-13.198 2.753-23.067-10.349-25.288-25.6-1.163-9.38.349-19.421 5.369-27.48 9.152-14.713 21.323-26.869 18.512-46.45-.551-10.091-23.348-14.268-25.104-31.064-1.714-11.649 5.211-21.465 2.558-30.261-2.735-9.066-3.609-16.561-3.479-20.622z" stroke="#fff" stroke-width="3"/><path d="M312.105 299.564c-4.989-13.275 11.267-15.063 18.017-7.71 19.815 21.292 31.236 18.278 45.837 11.95 5.443-.024 3.992-10.97 10.771-16.095 6.78-5.125 13.843 1.17 16.949-4.441 5.336-8.741 11.754-11.972 17.554-11.336 4.733-.449 9.592 2.542 12.599 7.585 2.818 4.847 3.905 11.53 1.47 18.838-11.112 15.845 10.125 42.249 11.525 53.086-1.48 7.356 4.363 10.921 4.56 20.208.197 9.286-9.105 11.569-7.579 15.446 3.764 6.625 4.639 11.209 3.366 14.47.768 9.147-11.174 10.902-23.851 7.498-8.585-1.728-16.189-2.655-22.453-.854-6.307-1.218-8.992 10.522-14.848 14.409-9.311 5.295-12.93-2.552-19.296 5.317-3.462 3.969-7.03 7.87-10.722 11.866-10.843 9.804-20.127 8.658-25.546 3.879-8.903 1.107-15.483-8.362-16.852-19.233-.665-6.967.578-14.348 4.301-20.329 8.237-13.253 17.374-23.164 14.059-40.588-.742-7.85-16.651-11.813-18.569-24.166-1.89-8.93 1.97-16.644-.14-23.641-2.123-7.037-2.097-12.962-1.152-16.159z" stroke="#fff" stroke-width="3"/><path d="M330.12 310.343c-1.207-7.379 8.57-8.349 12.992-3.528 18.397 19.733 28.194 14.856 39.583 6.677 3.273-.69 3.225-7.403 7.348-11.108 4.122-3.705 8.45-1.608 10.797-4.705 4.253-4.953 9.065-6.032 13.167-4.463 2.927.36 5.969 2.904 7.545 6.682 1.481 3.681 1.556 8.486-1.265 13.556-12.464 14.024 12.478 40.942 15.306 50.709.015 5.216 2.255 8.289.993 13.631-1.262 5.342-7.951 6.593-9.174 7.715-.38 2.382-1.695 3.593-3.829 4.354-.674 4.099-8.428 4.561-16.694 3.155-6.223-.567-12.099-.025-16.859 3.239-3.918.426-6.095 7.528-9.944 10.934-5.683 4.281-8.512 1.604-12.673 6.445a93.37 93.37 0 01-8.183 7.713c-8.995 6.099-16.361 2.336-19.754-3.851-4.64-.532-7.957-6.397-8.478-12.923-.17-4.576.807-9.321 3.242-13.24 7.335-11.823 13.464-19.515 9.638-34.823-.934-5.631-10.009-9.389-12.092-17.338-2.067-6.239-1.254-11.872-2.828-17.09-1.516-5.029-.595-9.399 1.162-11.741z" stroke="#fff" stroke-width="3"/></svg>