<svg width="655" height="753" fill="none" xmlns="http://www.w3.org/2000/svg"><path d="M115.828 522.305c-136.007-46.727-67.611-171.645 24.694-232.401 51.467-37.083 18.352-107.234 82.151-153.145 63.799-45.911 83.203 74.752 182.731 5.808 99.528-68.943 227.827 85.778 173.83 168.616-53.997 82.838-11.829 78.782-6.295 202.364 5.535 123.582-173.784 202.669-240.426 106.875-66.643-95.795-69.454-47.535-216.685-98.117z" stroke="#fff" stroke-width="3"/><path d="M325.029 407.659c-13.389-3.815-19.29-32.907-2.398-41.492 15.468-7.861 19.59-23.825 28.437-30.181 23.292-16.733 21.958-5.627 38.341-9.021 19.936-4.129 54.401 10.978 35.356 38.805-15.663 22.885.139 23.645-6.665 44.153-6.803 20.508-28.488 34.205-50.56 19.099-8.289-5.673-20.211-15.009-42.511-21.363z" stroke="#fff" stroke-width="3"/><path d="M134.289 511.504C9.429 468.679 71.07 352.472 156.52 296.459c48.195-34.427 18.465-99.651 77.268-141.967 60.116-43.258 77.635 67.445 169.604 4.461 92.293-63.052 212.061 78.977 161.242 156.814-50.512 77.388-10.741 73.77-6.328 187.981 4.412 114.212-160.576 187.355-223.166 98.896-61.338-87.602-64.978-44.578-200.851-91.14z" stroke="#fff" stroke-width="3"/><path d="M152.751 500.704c-113.714-38.924-58.826-146.419 19.768-197.69 44.921-31.77 18.577-92.069 72.384-130.788 56.434-40.606 72.068 60.137 156.478 3.112 85.057-57.159 196.296 72.178 148.653 145.014-47.027 71.937-9.653 68.757-6.361 173.598 3.291 104.841-147.367 172.04-205.906 90.916-56.032-79.409-60.5-41.621-185.016-84.162z" stroke="#fff" stroke-width="3"/><path d="M171.212 489.904c-102.566-35.024-54.433-133.807 17.306-180.335 41.649-29.114 18.689-84.486 67.501-119.609 52.751-37.954 66.5 52.83 143.352 1.764 77.821-51.267 180.529 65.378 136.064 133.212-43.542 66.488-8.565 63.745-6.395 159.216 2.169 95.471-134.158 156.725-188.645 82.936-50.728-71.216-56.024-38.664-169.183-77.184z" stroke="#fff" stroke-width="3"/><path d="M189.675 479.104c-91.42-31.123-50.04-121.195 14.842-162.979 38.377-26.458 18.802-76.904 62.619-108.432 49.069-35.3 60.931 45.523 130.225.416 70.586-45.374 164.763 58.578 123.476 121.412-40.058 61.037-7.477 58.732-6.429 144.833 1.048 86.1-120.95 141.409-171.385 74.956-45.422-63.023-51.547-35.707-153.348-70.206z" stroke="#fff" stroke-width="3"/><path d="M208.52 468.565c-80.272-27.221-45.648-108.582 12.379-145.624 35.104-23.801 18.915-69.321 57.735-97.252 45.387-32.649 55.364 38.216 117.099-.932 63.35-39.483 148.997 51.778 110.888 109.61-36.573 55.587-6.389 53.72-6.463 130.45-.074 76.73-107.741 126.095-154.124 66.977-40.118-54.83-47.07-32.75-137.514-63.229z" stroke="#fff" stroke-width="3"/><path d="M227.816 458.335c-69.125-23.32-41.254-95.969 9.916-128.268 31.831-21.144 19.028-61.739 52.853-86.074 41.704-29.996 49.796 30.909 103.972-2.28 56.115-33.59 133.231 44.978 98.299 97.809-33.087 50.137-5.301 48.708-6.496 116.067-1.196 67.36-94.532 110.78-136.864 58.997-34.813-46.637-42.593-29.793-121.68-56.251z" stroke="#fff" stroke-width="3"/><path d="M247.138 448.123c-57.978-19.42-36.862-83.357 7.453-110.914 28.559-18.487 19.14-54.155 47.97-74.895 38.021-27.343 44.228 23.601 90.846-3.628 48.879-27.698 117.465 38.178 85.71 86.008-29.603 44.687-4.213 43.695-6.53 101.685-2.317 57.989-81.323 95.464-119.603 51.017-29.508-38.445-38.117-26.837-105.846-49.273z" stroke="#fff" stroke-width="3"/><path d="M266.497 437.934c-46.831-15.518-32.469-70.745 4.99-93.558 25.286-15.831 19.252-46.573 43.086-63.717 34.339-24.691 38.661 16.294 77.72-4.976 41.643-21.806 101.699 31.378 73.122 74.207-26.118 39.236-3.125 38.683-6.564 87.302-3.439 48.619-68.114 80.15-102.342 43.037-24.203-30.251-33.64-23.879-90.012-42.295z" stroke="#fff" stroke-width="3"/><path d="M285.909 427.78c-35.683-11.617-28.075-58.132 2.528-76.202 22.013-13.175 19.365-38.991 38.203-52.539 30.657-22.038 33.093 8.987 64.594-6.324 34.407-15.913 85.933 24.578 60.533 62.406-22.633 33.787-2.037 33.671-6.598 72.919-4.56 39.249-54.906 64.835-85.081 35.058-18.899-22.058-29.164-20.923-74.179-35.318z" stroke="#fff" stroke-width="3"/><path d="M305.404 417.68c-24.536-7.716-23.682-45.52.065-58.847 18.74-10.518 19.477-31.408 33.32-41.36 26.974-19.386 27.525 1.68 51.467-7.673 27.172-10.021 70.167 17.778 47.945 50.606-19.148 28.336-.949 28.658-6.631 58.536s-41.697 49.52-67.821 27.078c-13.594-13.866-24.687-17.966-58.345-28.34z" stroke="#fff" stroke-width="3"/></svg>